<?xml version="1.0" encoding="utf-8"?>
<!-- Generator: Adobe Illustrator 17.0.0, SVG Export Plug-In . SVG Version: 6.00 Build 0)  -->
<!DOCTYPE svg PUBLIC "-//W3C//DTD SVG 1.1//EN" "http://www.w3.org/Graphics/SVG/1.1/DTD/svg11.dtd" [
	<!ENTITY ns_flows "http://ns.adobe.com/Flows/1.0/">
	<!ENTITY ns_extend "http://ns.adobe.com/Extensibility/1.0/">
	<!ENTITY ns_ai "http://ns.adobe.com/AdobeIllustrator/10.0/">
	<!ENTITY ns_graphs "http://ns.adobe.com/Graphs/1.0/">
]>
<svg version="1.1" id="Layer_1" xmlns:x="&ns_extend;" xmlns:i="&ns_ai;" xmlns:graph="&ns_graphs;"
	 xmlns="http://www.w3.org/2000/svg" xmlns:xlink="http://www.w3.org/1999/xlink" xmlns:a="http://ns.adobe.com/AdobeSVGViewerExtensions/3.0/"
	 x="0px" y="0px" width="1400px" height="980px" viewBox="0 0 1400 980" enable-background="new 0 0 1400 980" xml:space="preserve"
	>
<g opacity="0.5">
	<g>
		<path fill="#B2B8CF" d="M391.332,377.254c2.178,0.238,4.747,0.518,7.597,0.828c2.867,0.297,6.012,0.463,9.358,0.669
			c6.673,0.329,14.072,0.446,21.278,0.383c-2.794-0.075-5.616-0.125-8.514-0.154c-2.904-0.085-5.899-0.173-9.033-0.265
			c-3.116-0.071-6.395-0.294-9.82-0.483C398.77,378.052,395.139,377.592,391.332,377.254z"/>
	</g>
	<g>
		<path fill="#B2B8CF" d="M429.849,379.141c0.052-0.002,0.16-0.005,0.223-0.006c-0.199,0-0.342,0-0.507,0
			C429.677,379.137,429.765,379.139,429.849,379.141z"/>
	</g>
	<g>
		<path fill="#B2B8CF" d="M912.284,751.187c-3.451-0.876-7.391-1.833-11.389-2.782C904.71,749.336,908.59,750.284,912.284,751.187z"
			/>
	</g>
	<g>
		<path fill="#B2B8CF" d="M839.499,309.884l-1.707,5.936c-3.814-0.121-6.947-0.323-9.404-0.588c-2.554-0.269-4.451-0.596-5.904-0.96
			c-2.872-0.728-4.158-1.591-5.223-2.413c-2.298-1.614-3.672-3.189-20.653-2.751c-0.813,0.533-1.744,0.993-2.78,1.39
			c-1.078,0.41-2.263,0.756-3.54,1.047c-2.58,0.594-5.404,0.913-8.754,1.197c-3.314,0.271-6.775,0.333-10.664,0.467
			c-1.916,0.037-3.862,0.075-5.822,0.113c-2.034,0.06-4.082,0.12-6.127,0.18c-2.074,0.071-4.08,0.088-6.191,0.198
			c-2.122,0.122-4.222,0.243-6.281,0.361c-4.051,0.195-8.285,0.709-12.04,1.181c-0.945,0.131-1.87,0.26-2.772,0.385
			c-0.829,0.13-1.468,0.255-2.179,0.39c-1.378,0.267-2.668,0.554-3.853,0.865c-1.188,0.311-2.259,0.646-3.227,1.012
			c-1.047,0.378-1.96,0.784-2.719,1.223c0.034-0.189-1.116-0.145-2.857-0.014c-0.87,0.071-1.888,0.153-2.978,0.242
			c-0.55,0.046-1.119,0.093-1.695,0.141c-0.685,0.092-1.379,0.185-2.072,0.277c-5.546,0.716-11.08,1.245-10.782-0.305
			c-1.314,1.642-3.316,2.913-5.806,3.984c-2.49,1.07-5.504,1.934-8.519,2.836c-1.545,0.43-3.143,0.874-4.772,1.328
			c-1.639,0.446-3.315,0.921-4.861,1.438c-3.143,1.028-6.365,2.179-9.21,3.603c-1.808,1.466-0.886,1.511,0.943,1.216
			c1.891-0.293,4.8-0.914,6.719-0.803c0,0-1.686,0.735-4.216,1.838c-2.545,1.106-5.614,2.607-8.821,4.111
			c-0.789,0.377-1.578,0.754-2.355,1.125c-0.737,0.37-1.462,0.735-2.163,1.088c-1.401,0.708-2.709,1.368-3.831,1.934
			c-1.12,0.568-2.053,1.041-2.706,1.372c-0.622,0.328-0.977,0.515-0.977,0.515c-9.854,2.579-13.562,0.916-3.776-4.021
			c-1.951,0.804-4.133,1.704-6.533,2.694c-2.27,0.969-4.746,2.026-7.414,3.165c-4.935,2.153-10.58,4.615-16.835,7.344
			c-2.835,1.223-5.807,2.506-8.907,3.843c-2.929,1.26-6.035,2.616-8.935,3.789c-3.049,1.295-5.868,2.351-8.84,3.521
			c-3.228,1.199-6.551,2.432-9.957,3.697c-3.494,1.281-7.074,2.594-10.73,3.935c-3.51,1.162-7.092,2.348-10.736,3.555
			c-7.412,2.278-15.047,4.76-23.096,6.982c-3.96,1.192-8.087,2.237-12.217,3.325c-2.066,0.542-4.14,1.086-6.221,1.632
			c-2.107,0.504-4.221,1.011-6.34,1.518c-2.116,0.511-4.237,1.024-6.363,1.538c-2.147,0.469-4.299,0.939-6.454,1.41
			c-2.152,0.474-4.307,0.949-6.463,1.424l-6.851,1.448l-6.898,1.449c-1.332,0.295-1.808,0.341-2.619,0.491l-2.248,0.393
			c-3.697,0.538-7.387,1.076-11.059,1.61c-8.828,1.265-19.861,2.727-32.684,5.089c-1.671,0.328-3.337,0.656-4.999,0.982
			l-2.489,0.496l-1.242,0.249l-1.334,0.303c-1.785,0.414-3.564,0.827-5.338,1.239l-2.655,0.628l-2.841,0.742
			c-3.87,1.051-7.445,1.955-11.69,3.335c-2.042,0.655-4.077,1.308-6.104,1.959c-0.966,0.299-2.156,0.758-3.232,1.145l-3.292,1.223
			c-2.215,0.844-4.298,1.61-6.579,2.558c-2.367,1.018-4.716,2.058-7.043,3.117c-4.451,1.929-9.756,4.799-14.582,7.48l-1.828,1.03
			l-0.914,0.523l-0.99,0.614c-1.311,0.833-2.619,1.665-3.923,2.494c-2.596,1.681-5.151,3.4-7.66,5.149l-0.47,0.328
			c-2.54,1.821,3.184-2.286,2.576-1.852l-0.087,0.057l-0.347,0.228l-0.692,0.456l-0.69,0.454l-0.344,0.227l-0.777,0.539
			c-1.379,0.969-2.744,1.951-4.095,2.944L330.873,445l-1.697,1.313c-1.12,0.888-2.238,1.773-3.351,2.656
			c-1.188,1.003-2.371,2.003-3.552,3l-1.76,1.532l-1.875,1.711c-1.263,1.173-2.422,2.24-3.725,3.528
			c-1.318,1.308-2.615,2.63-3.89,3.963c-0.613,0.632-1.32,1.406-2.004,2.165l-2.031,2.284l-2.003,2.33l-2.124,2.624
			c-1.413,1.789-2.703,3.433-4.2,5.553c-5.601,7.838-11.493,17.617-16.302,30.348c-1.212,3.27-2.317,6.635-3.288,9.982
			c-0.999,3.602-1.858,7.219-2.568,10.896c-0.701,3.859-1.259,7.673-1.624,11.603c-0.341,4.005-0.552,7.966-0.516,11.992
			c0.049,4.023,0.216,8.069,0.655,12.001c0.421,3.942,0.995,7.915,1.768,11.632c0.382,1.883,0.8,3.755,1.256,5.612
			c0.458,1.868,0.948,3.561,1.472,5.332c0.524,1.75,1.08,3.486,1.666,5.205c0.578,1.662,1.173,3.235,1.8,4.837
			c5.042,12.767,11.215,22.619,16.994,30.361c5.81,7.732,11.417,13.599,16.417,18.291c4.999,4.667,9.621,8.385,13.841,11.512
			c8.366,6.139,15.375,10.234,21.536,13.553c6.136,3.271,11.475,5.727,16.284,7.777c9.595,4.063,17.115,6.526,23.271,8.37
			c-5.598-4.109-16.045-8.085-27.854-14.415c-5.903-3.169-12.09-6.892-17.939-11.382c-5.806-4.435-11.198-9.655-14.573-14.562
			c5.305,3.644,9.771,6.322,13.746,8.639c1.902,1.075,3.827,2.187,5.499,3.089c0.854,0.468,1.694,0.929,2.52,1.382
			c0.791,0.423,1.57,0.839,2.335,1.249c6.085,3.24,10.794,5.654,14.897,7.679c8.152,3.98,13.957,6.422,20.155,6.477
			c1.581,3.22,5.802,6.138,11.367,8.654c5.58,2.529,12.478,4.652,19.779,6.548c7.315,1.902,15.045,3.62,22.768,5.478
			c0.483,0.118,0.963,0.235,1.44,0.352c0.438,0.113,0.614,0.193,0.931,0.295c0.591,0.196,1.035,0.388,1.839,0.627
			c1.445,0.46,2.838,0.957,4.165,1.497c2.653,1.08,5.043,2.335,7.06,3.828c0,0,1.805-1.304,3.611-2.607
			c1.78-1.312,3.56-2.624,3.56-2.624s2.851,1.063,5.701,2.125c2.769,0.986,5.538,1.972,5.538,1.972
			c3.087-0.097,6.004-0.189,8.76-0.276c2.641-0.166,5.129-0.322,7.473-0.469c2.32-0.165,4.583-0.276,6.547-0.475
			c1.985-0.189,3.841-0.366,5.578-0.532c7.02-0.631,11.72-1.338,15.365-1.768c3.638-0.436,5.837-0.812,7.498-1.006
			c1.638-0.207,2.631-0.289,3.554-0.31c1.843-0.043,3.443,0.19,9.135,0.044c2.854-0.076,6.811-0.175,12.164-0.617
			c5.424-0.393,12.3-1.043,21.079-2.073c20.143-3.252,33.861-7.851,45.247-11.545c2.804-0.915,5.705-1.834,8.453-2.656
			c2.189-0.638,4.309-1.255,6.395-1.863c1.587-0.423,3.163-0.792,4.761-1.018c1.864-0.208,3.947-0.27,5.973-0.18
			c-2.367,0.262-9.276-2.36-1.919-4.805c0.484,1.201,1.949,1.411,3.943,1.117c0.998-0.147,2.127-0.421,3.339-0.759
			c1.333-0.319,2.752-0.7,4.193-1.084c2.882-0.768,5.853-1.546,8.388-1.846c2.487-0.314,4.785-0.075,5.921,1.072
			c8.23-1.524,36.617-3.193,26.561-9.203c2.494,1.473,10.182,2.126,15.351,2.834c5.166,0.725,7.808,1.594,0.315,3.687
			c8.584-0.529,17.07-0.138,23.225-2.103l-11.253-1.058c29.237-3.216,45.674,1.089,64.66-6.259l-11.063-1.961
			c17.687-1.579,32.526-2.987,39.722,3.188l-18.101,3.167c29.329-2.093,47.123-3.383,71.146-8.196l-8.622,0.29
			c3.802-1.014,9.763-2.155,16.931-3.262c1.795-0.27,3.682-0.553,5.654-0.849c1.853-0.26,3.786-0.531,5.79-0.812
			c0.502-0.068,1.008-0.137,1.519-0.206l0.384-0.052l0.096-0.013c4.506-0.058,1.28-0.021,2.3-0.036l0.055-0.008l0.219-0.03
			l0.878-0.121c0.734-0.091,0.603-0.127,3.068-0.31c1.892-0.158,3.796-0.346,5.708-0.563l0.676-0.08l0.436-0.067l0.875-0.136
			l1.757-0.279c1.175-0.189,2.404-0.386,3.361-0.581c1.024-0.199,2.054-0.399,3.092-0.601c1.066-0.205,1.882-0.405,2.843-0.611
			c7.395-1.647,13.466-3.348,19.082-4.955c5.601-1.594,10.736-3.203,15.442-4.6c4.663-1.399,8.995-2.656,12.231-3.574l2.212-0.645
			l0.962-0.298l0.73-0.25l0.368-0.136l0.215-0.103c0.142-0.072,0.286-0.151,0.431-0.237c0.034-0.035,0.022-0.061,0.036-0.096
			l0.012-0.053l0.007-0.028l0.003-0.014l0.002-0.007l0.01-0.307c0.059-1.782,0.144-3.566,0.254-5.351
			c0.034-1.578,0.078-3.116,0.159-4.68c0.078-1.558,0.184-3.117,0.317-4.677l0.44-4.594c0.181-2.701,0.477-5.407,0.89-8.113
			l0.332-2.028c0.122-0.684,0.15-1.185,0.241-1.786c0.156-1.155,0.343-2.311,0.561-3.466c0.218-1.155,0.466-2.308,0.746-3.459
			c0.164-0.612,0.248-1.091,0.335-1.563l0.307-1.446c0.221-0.964,0.473-1.925,0.758-2.884l0.451-1.435
			c0.072-0.23,0.175-0.497,0.228-0.696l0.154-0.583c0.428-1.553,0.985-3.098,1.671-4.619c0.492-1.299,0.936-2.395,1.598-3.571
			c0.143-0.271,0.366-0.612,0.465-0.819l0.309-0.614c0.219-0.408,0.466-0.812,0.741-1.21c0.702-0.93,0.821-1.215,1.265-1.727
			l0.318-0.348c0.102-0.107,0.269-0.26,0.263-0.27c0.067-0.084,0.147-0.173,0.244-0.263c0.096-0.091,0.208-0.183,0.335-0.275
			c-14.808,9.285-4.012,2.556-7.275,4.62l0.162-0.031l0.324-0.063l0.647-0.125l1.294-0.25l1.292-0.25
			c0.272,0.004,0.262-0.217,0.394-0.326l0.311-0.395c0.427-0.519,0.904-1.007,1.426-1.456c1.939-1.207,3.71-1.774,4.659-1.997
			c0.865-0.218,1.072-0.106,0.546-0.166c-0.188-0.016-0.352-0.045-0.512-0.084c-0.302-0.045-0.586-0.11-0.85-0.191l-0.202-0.065
			l-0.297-0.08c-0.195-0.056-0.386-0.118-0.57-0.185l-1.255-0.491c-0.504-0.201-0.83-0.402-1.411-0.667
			c-0.559-0.263-1.093-0.551-1.6-0.862c-0.514-0.312-1.224-0.69-1.785-1.069l-1.86-1.261c-0.667-0.46-1.306-0.942-1.917-1.445
			c-0.723-0.533-1.443-1.095-2.122-1.672l-1.003-0.881l-1.129-0.963c-0.748-0.654-1.469-1.326-2.163-2.015
			c-0.727-0.701-1.568-1.469-2.306-2.225l-2.267-2.363c-0.813-0.836-1.601-1.686-2.364-2.549l-1.131-1.307l-1.242-1.391
			c-1.638-1.869-3.108-3.751-4.828-5.837c-0.82-1.023-1.617-2.056-2.391-3.098c-0.835-1.095-1.667-2.187-2.498-3.276
			c-0.822-1.106-1.623-2.22-2.403-3.34c-0.843-1.176-1.683-2.349-2.521-3.519l-0.308-0.443c-0.072-0.104-0.065-0.095-0.06-0.087
			l0.004,0.006l0.018,0.023l0.037,0.048c0,0.043-0.017,0.094-0.024,0.142c-0.061,0.397-0.572,1.054-1.293,1.78
			c-1.502,1.479-3.801,3.221-6.22,4.874c-2.436,1.656-4.985,3.297-7.405,4.801c-4.851,3.017-9.062,5.536-11.62,7.446
			c0,0,2.956,0.121,5.911,0.242c2.912,0.089,5.823,0.178,5.823,0.178s-4.314,2.814-9.046,5.528
			c-4.697,2.725-9.653,5.314-9.653,5.314c1.239-0.37,2.712-4.736,4.031-8.937c1.335-4.2,2.507-8.226,3.677-7.871
			c-3.121,1.214-7.371,2.81-12.622,4.611c-2.618,0.899-5.496,1.849-8.496,2.797c-1.423,0.441-2.894,0.896-4.411,1.366l-0.492,0.151
			l-0.238,0.074l-0.03,0.009c-2.053,0.416,2.765-0.557,2.25-0.452l-0.095,0.023l-0.191,0.046c-0.509,0.121-1.023,0.244-1.539,0.367
			c-1.034,0.246-2.082,0.496-3.144,0.749c-4.246,1.028-8.718,2.111-13.391,3.243c-2.336,0.569-4.721,1.151-7.154,1.744
			c-2.269,0.514-4.583,1.038-6.936,1.571c-4.674,1.052-9.511,2.141-14.486,3.26c-1.247,0.281-2.502,0.563-3.766,0.848
			c-1.328,0.273-2.666,0.547-4.011,0.824c-2.692,0.553-5.418,1.112-8.173,1.678c-5.541,1.103-11.085,2.357-16.934,3.499
			c-5.828,1.158-11.753,2.335-17.751,3.527c-6.068,1.179-12.209,2.372-18.397,3.574c-3.107,0.598-6.225,1.198-9.353,1.8
			l-2.346,0.459l-0.587,0.116l-0.294,0.058l-0.18,0.033c-0.037,0.042-0.094-0.065-0.114,0.1l0.011,1.014
			c0.02,0.46-0.012,0.533-0.063,0.469l-0.125,0.018l-0.25,0.036l-0.5,0.072l-1,0.145c-2.666,0.386-5.335,0.772-8.006,1.159
			c-10.674,1.543-21.385,3.091-32.09,4.638l-2.006,0.289c-0.663,0.103-1.361,0.164-1.945,0.361l-3.658,0.996l-7.31,1.99
			c-4.869,1.324-9.731,2.646-14.582,3.965c-4.849,1.316-9.686,2.63-14.507,3.939l-0.903,0.245l-0.806,0.266l-1.61,0.532
			l-3.215,1.063c-2.141,0.708-4.279,1.414-6.411,2.118c-8.529,2.812-16.982,5.6-25.324,8.35l0,0
			c-21.267,7.18-39.496,14.934-55.936,22.004c-4.092,1.785-8.023,3.556-11.78,5.314c-0.928,0.444-1.896,0.869-2.778,1.321
			c-0.746,0.501-1.489,1-2.228,1.497l-1.11,0.741l-1.306,0.651c-0.868,0.433-1.731,0.864-2.589,1.293
			c-6.79,3.443-12.855,6.821-18.214,10.084c-1.367,0.811-2.618,1.627-3.888,2.425l-0.944,0.597l-1.064,0.555
			c-0.706,0.369-1.407,0.735-2.102,1.098c-0.331,0.186-0.73,0.353-1.002,0.552l-0.831,0.589c-0.552,0.391-1.099,0.779-1.641,1.164
			c-1.09,0.768-2.082,1.535-3.1,2.282c-1.015,0.747-1.935,1.492-2.88,2.215l-0.699,0.541l-0.784,0.514
			c-0.521,0.341-1.036,0.678-1.545,1.012c-2.095,1.324-3.152,2.793-5.076,4.003c-3.498,2.498-5.138,5.036-7.762,7.063
			c-1.221,1.025-2.273,2.014-3.288,2.906c-0.87,0.924-1.51,1.792-2.243,2.555c-6.402,6.426-8.268,7.059-8.693,5.726
			c-0.226-0.638,0.016-1.711,0.082-2.648c0.056-0.937,0.142-1.733,0.016-1.793c-0.966,2.165-2.221,3.856-2.967,5.308
			c-0.797,1.427-1.32,2.591-1.681,3.503c-0.203,0.954-0.282,1.666-0.361,2.251c-0.128,0.59-0.19,1.047-0.253,1.48
			c-0.128,0.865-0.239,1.659-0.875,3.29c-0.155,0.414-0.342,0.88-0.57,1.413c-0.139,0.559-0.296,1.19-0.474,1.906
			c-0.494,1.473-1.278,3.268-2.038,5.875c-0.7,2.898-1.159,2.599-1.619,1.104c-0.29-0.765-0.254-1.734-0.214-2.741
			c0.064-0.966,0.167-1.97,0.324-2.69c-0.582,2.096-1.469,4.279-1.5,6.517c-0.477,2.225-0.793,4.48-0.925,6.453
			c-0.015,0.495-0.087,0.97-0.046,1.423c0.073,0.453,0.142,0.884,0.208,1.292c0.152,0.819,0.157,1.505,0.265,2.106
			c0.2,1.166,0.492,1.874,0.854,2.071c-0.076-1.551,0.067-2.895,0.144-4.025c0.016-0.569,0.049-1.078,0.098-1.534
			c0.124-0.457,0.282-0.861,0.428-1.219c0.598-1.434,1.346-2.113,2.05-2.573c0.737-0.443,1.487-0.649,2.252-1.077
			c0.755-0.436,1.552-1.069,2.444-2.315c0,0-0.103,0.443-0.283,1.217c-0.157,0.789-0.4,1.924-0.546,3.361
			c-0.103,0.708-0.133,1.497-0.186,2.326c-0.028,0.825,0.218,1.712,0.262,2.595c0.083,1.797,0.386,3.561,0.732,5.234
			c0.393,1.622,0.952,2.663,1.461,3.535c0.174,0.436,0.943,0.805,1.055,1.141c0.247,0.347,0.484,0.63,0.701,0.906
			c0.872,1.053,1.459,1.617,1.459,1.617l-3.128-0.339c0.942,1.119,4.047,2.34,8.411,3.983c1.048,0.396,2.2,0.832,3.475,1.315
			c0.638,0.23,1.173,0.478,1.928,0.721c0.781,0.239,1.671,0.487,2.239,0.757c2.562,1.077,5.218,2.299,7.524,3.803
			c1.237,0.712,2.511,1.424,3.829,2.143c0.363,0.177,0.586,0.366,1.067,0.534l1.384,0.51c0.804,0.354,1.364,0.729,2.08,1.099
			c1.4,0.754,2.812,1.513,4.235,2.279c0.749,0.393,1.501,0.788,2.256,1.185l0.577,0.301c0.111,0.049,0.16,0.104,0.323,0.147
			l0.491,0.13l1.972,0.521l-0.402,0.164c-0.093,0.05,0.088,0.068,0.118,0.103l0.397,0.187l0.795,0.375l1.607,0.762l3.278,1.573
			l3.371,1.653l3.623,1.719c1.181,0.59,2.474,1.197,3.792,1.806c1.382,0.617,3.1,1.164,4.414,1.839l1.049,0.487l0.524,0.243
			l0.63,0.236l2.544,0.942c1.66,0.669,2.959,1.384,4.99,2.033c1.82,0.659,3.875,1.337,5.877,2.01l3.199,1.026
			c0.557,0.168,1.024,0.348,1.656,0.507l1.922,0.472c1.309,0.313,2.496,0.632,3.901,0.941l4.12,0.932
			c0.622,0.167,1.554,0.276,2.345,0.412l2.462,0.389l2.458,0.39l2.628,0.364l2.631,0.364l1.314,0.182
			c0.433,0.062,0.856,0.126,1.416,0.156c2.096,0.154,4.189,0.308,6.28,0.462c2.018,0.175,4.383,0.249,6.585,0.369l3.351,0.166
			l0.837,0.041l0.418,0.021l0.499-0.007l1.997-0.029c2.661-0.038,5.319-0.076,7.973-0.113c2.503-0.002,5.002-0.004,7.497-0.006
			l3.716,0.003l3.841-0.073c2.565-0.053,5.125-0.105,7.681-0.158c-1.088,0.277-3.472,0.521-6.939,0.794
			c-3.462,0.269-8.017,0.568-13.039,0.718c-5.242,0.203-11.274,0.436-17.704,0.684l-1.235,0.049l-1.07-0.011
			c-0.704-0.011-1.414-0.023-2.127-0.035c-1.427-0.025-2.87-0.049-4.324-0.074c-2.988-0.029-5.702-0.154-8.481-0.265
			c1.612,0.117,3.329,0.241,5.124,0.37c1.935,0.089,3.953,0.182,6.023,0.277c1.035,0.047,2.084,0.096,3.142,0.144
			c1.149,0.017,2.512-0.036,3.767-0.049c2.553-0.042,5.132-0.085,7.701-0.127c9.465,0.002,18.775,0.004,25.801,0.005
			c-12.629-0.362,0.905-0.942,14.852-1.877c1.747-0.123,3.506-0.247,5.225-0.368c0.857-0.06,1.703-0.119,2.533-0.176
			c0.82-0.054,1.488-0.062,2.21-0.094c2.829-0.112,5.321-0.211,7.093-0.281c1.735-0.043,3.017-0.236,3.061-0.282
			c0.023-0.024-0.248-0.021-0.862,0.011c-0.557-0.008-1.402-0.019-2.578-0.036l2.026-0.135l1.017-0.07l1.125-0.143
			c1.49-0.187,2.987-0.374,4.489-0.563c1.486-0.183,2.978-0.367,4.476-0.551l2.219-0.266l1.976-0.17
			c2.609-0.217,5.238-0.435,7.885-0.654c2.582-0.243,5.182-0.487,7.797-0.733c2.618-0.23,5.138-0.503,7.67-0.764
			c2.497-0.239,5.194-0.597,7.32-0.602c2.265-0.1,4.474-0.118,6.784-0.274c2.41-0.306,4.829-0.614,7.257-0.922
			c2.436-0.299,4.675-0.655,7.023-0.975c1.141-0.147,2.369-0.366,3.439-0.451l3.137-0.189c4.221-0.237,8.277-0.524,12.332-0.801
			l5.951-0.446l5.771-0.477l1.438-0.119c0.233,0.18,0.497-0.588,0.718-0.397l0.464-0.031l1.731-0.127l3.456-0.252
			c18.403-1.342,36.301-2.652,50.827-4.356c0.643-0.373,4.89-2.36,10.88-4.526c5.991-2.182,13.724-4.43,21.359-5.813
			c7.636-1.417,15.173-1.9,20.799-1.853c2.813,0.013,5.148,0.131,6.781,0.229c1.633,0.098,2.562,0.195,2.564,0.135
			c8.941,2.047,17.836,4.259,20.472,5.259c-2.188-0.966-19.779-5.351-29.131-7.204l-1.623-0.009
			c-10.761-2.117-12.02-2.406-13.213-2.743c-1.194-0.298-2.32-0.741-12.823-2.718c-0.553-0.334,4.004,0.328,10.824,1.727
			c6.82,1.385,15.908,3.325,24.414,5.25c-15.318-3.423-30.57-7.164-36.825-7.818c-14.391-3.138,1.616-0.278-15.712-4.177
			c-6.174-1.197-13.315-2.562-20.686-3.775c-7.37-1.267-14.964-2.616-22.034-4.274l0.255-0.118
			c-4.298-0.967-8.343-1.844-12.192-2.643c-1.924-0.39-3.8-0.771-5.634-1.142c-1.662-0.332-4.371-0.853-3.615-0.676
			c-0.089,0.083-0.293,0.286-0.686,0.483c-0.38,0.198-0.948,0.389-1.439,0.459c-0.475,0.071-0.892,0.02-0.548-0.252l1-0.334
			c0.594-0.299,0.399-0.252,0.033-0.217c-0.314,0.037-0.872,0.056,0.477-0.233c-0.99,0.183-3.856,0.876-5.107,0.949
			c0.696-0.241,0.757-0.308,0.582-0.346c-0.093-0.017-0.183-0.033-0.27-0.048c-0.032-0.009-0.047-0.02-0.031-0.034
			c0.008-0.007,0.025-0.015,0.051-0.024l0.048-0.015l0.03-0.008l0.008-0.002l-0.345,0.04l-0.773,0.089l1.354-0.181l0.472-0.073
			c0.483-0.062,0.967-0.124,1.455-0.187c0,0-1.945,0.169-3.89,0.338c-2.113,0.152-4.226,0.304-4.226,0.304
			c-0.654-0.091-1.557-0.217-2.644-0.369c-0.323-0.055-0.672-0.117-1.037-0.219c-0.18-0.053-0.371-0.112-0.534-0.219
			c-0.148-0.117-0.267-0.271-0.332-0.432c-0.216-0.69,0.224-1.159,0.551-1.578c1.5-1.605,3.988-3.037,7.634-4.678h0
			c1.809-0.599,3.861-1.217,6.066-1.805l0.832-0.224c-0.432-0.009,1.673-0.141,2.984-0.244c1.431-0.113,2.858-0.226,4.279-0.338
			c5.687-0.451,11.294-0.896,16.811-1.333c11.218-0.951,22.066-1.871,32.441-2.751c5.279-0.491,10.434-1.01,15.455-1.532
			c2.511-0.257,4.99-0.511,7.433-0.761c1.232-0.13,2.455-0.259,3.67-0.387c1.266-0.152,2.522-0.302,3.769-0.452
			c4.991-0.602,9.828-1.186,14.499-1.75c2.337-0.284,4.632-0.563,6.884-0.837c1.126-0.138,2.242-0.274,3.346-0.408
			c1.013-0.138,2.015-0.275,3.007-0.411c7.869-1.098,15.081-2.104,21.537-3.004c0.806-0.115,1.601-0.229,2.384-0.341
			c2.006-0.395,3.982-0.784,5.927-1.166c1.911-0.39,3.76-0.768,5.546-1.132c3.47-0.727,6.592-1.42,9.47-2.077l-3.594,1.432
			c9.131-2.081,18.656-4.469,29.042-7.481c5.188-1.505,10.594-3.182,16.279-5.097c5.702-1.921,11.675-4.111,18.117-6.792
			c6.463-2.699,13.373-5.815,21.302-10.134c3.957-2.161,8.201-4.652,12.893-7.789c4.69-3.154,9.828-6.896,15.684-12.133
			c0.688-0.602,1.496-1.365,2.25-2.077l2.275-2.192c0.769-0.759,1.617-1.643,2.409-2.473c0.816-0.864,1.571-1.657,2.415-2.605
			c0.858-0.97,1.706-1.953,2.542-2.947l1.245-1.499l1.329-1.692c0.885-1.146,1.754-2.308,2.605-3.482
			c0.856-1.18,1.818-2.621,2.687-3.946c0.903-1.397,1.704-2.624,2.646-4.262c0.907-1.559,1.783-3.14,2.625-4.738l0.632-1.22
			l0.658-1.346l1.268-2.72c0.829-1.849,1.587-3.581,2.38-5.715c0.773-2.053,1.491-4.131,2.151-6.224
			c0.67-2.171,1.292-4.529,1.834-6.817c0.272-1.158,0.527-2.303,0.763-3.483c0.233-1.228,0.447-2.463,0.64-3.702
			c0.381-2.494,0.706-4.937,0.905-7.502c0.854-10.295-0.006-20.883-2.246-30.649c-0.555-2.329-1.184-4.652-1.884-6.953
			c-0.348-1.136-0.723-2.328-1.096-3.401c-0.369-1.046-0.754-2.089-1.153-3.128c-0.793-2.062-1.665-4.17-2.557-6.133
			c-0.85-1.827-1.748-3.64-2.689-5.432l-1.444-2.67c-0.586-1.027-1.243-2.126-1.888-3.173c-1.305-2.114-2.681-4.193-4.119-6.223
			l-1.255-1.77l-0.285-0.409l-0.142-0.205l-0.071-0.102c1.862,2.382-2.575-3.311-2.342-2.995c-2.665-3.231-5.52-6.361-8.518-9.33
			c-1.526-1.536-2.978-2.828-4.477-4.116c-1.501-1.291-3.038-2.55-4.603-3.774l-2.367-1.809c-0.781-0.578-1.639-1.221-2.343-1.686
			c-1.475-1.002-2.976-1.979-4.496-2.928c-2.987-1.859-6.345-3.805-8.998-5.077c-2.808-1.396-5.712-2.73-8.577-3.926
			c-2.535-1.001-5.108-1.941-7.704-2.816c-2.75-0.946-4.827-1.498-7.161-2.131l-3.45-0.883l-1.72-0.411l-1.514-0.317
			c-2.021-0.415-4.054-0.8-6.094-1.155l-1.496-0.249l-1.348-0.192l-2.704-0.362c-7.371-0.953-13.249-1.189-19.012-1.317
			l-4.003-0.003c-1.334,0.006-2.709,0.013-3.894,0.057c-2.435,0.076-5.018,0.152-7.23,0.299c-9.242,0.532-17.178,1.45-24.489,2.422
			c-7.286,0.978-13.931,2.042-19.947,3.013c-5.991,0.98-11.452,1.927-15.66,2.518l-1.431,0.189c-0.462,0.06-0.97,0.133-1.289,0.158
			l-1.087,0.117l-0.697,0.041c-0.095,0.004-0.254,0.023-0.295,0.018l-0.031-0.028l-0.007-0.005l-0.004-0.002
			c0.013,0.142-0.038-0.347,0.039,0.418l0.577,6.193l0.261,3.1l0.124,1.551c0.025,0.558,0.102,0.979,0.19,1.368
			c0.322,1.633,0.622,3.271,0.899,4.913c0.555,3.284,1.02,6.583,1.394,9.896c0.187,1.656,0.352,3.316,0.493,4.978l0.196,2.495
			c0.059,0.452-0.019,0.74-0.047,1.087l-0.112,1.01l-0.897,8.081l-0.449,4.042l-0.224,2.021l-0.112,1.011
			c-0.925,47.729,1.139-63.792,0.865-52.401c-3.315-0.039-6.634-0.077-9.958-0.116c-3.138-0.011-6.281-0.023-9.425-0.034
			c-6.16,0.013-12.331,0.025-18.504,0.038c-24.428,0.246-48.568,0.858-72.348,1.622c-23.768,0.83-47.053,2.029-69.553,3.427
			c-22.534,1.377-44.186,3.317-65.025,5.576c-5.322,0.643-10.542,1.274-15.654,1.892c-1.244,0.144-2.605,0.339-3.957,0.535
			c-1.345,0.194-2.682,0.386-4.012,0.578c-2.657,0.391-5.284,0.777-7.88,1.158c-2.462,0.333-5.513,0.917-8.272,1.405
			c-2.804,0.527-5.572,1.048-8.303,1.561l-1.021,0.198l-0.733,0.157l-1.416,0.308c-0.941,0.206-1.875,0.411-2.802,0.614
			c-1.886,0.414-3.744,0.822-5.574,1.224c-9.812-0.689-20.815,0.18-31.509,1.213c-10.703,1.052-21.091,2.219-29.799,2.453
			c4.912,0.443,6.713,1.542,6.246,2.626c-0.429,1.065-3.181,2.168-6.921,2.432c-6.633,0.621-11.427,0.952-15.089,1.285
			c-3.561,0.245-6.044,0.531-7.701,0.749c-3.271,0.405-3.679,0.897-4.101,1.461c-0.211,0.283-0.426,0.585-1.01,0.908
			c-0.576,0.318-1.569,0.692-3.153,0.986c-0.804,0.156-1.784,0.313-2.985,0.473c-1.194,0.156-2.659,0.347-4.202,0.419
			c-1.559,0.085-3.466,0.226-5.487,0.267c-0.978,0-2.022,0.001-3.138,0.001c-1.114,0.003-2.282,0.027-3.689-0.094
			c-0.791-0.021-1.617-0.043-2.478-0.066c-0.43-0.013-0.87-0.027-1.317-0.04c-0.444-0.014-0.857-0.023-1.567-0.072
			c-0.319-0.02-0.641-0.04-0.966-0.061l-0.459-0.012c-0.279-0.001-0.591-0.015-0.913-0.031c-0.639-0.019-1.356-0.067-2.11-0.125
			c-3.031-0.248-6.89-0.831-10.635-1.687c-1.874-0.419-3.706-0.908-5.302-1.388c-1.578-0.472-2.945-0.962-3.589-1.194l-0.2-0.068
			l-0.125-0.032l-0.03,0l-0.008,0.001c-0.023,0.038,0.057-0.113-0.119,0.202l-0.703,1.283c-0.929,1.703-1.898,3.397-2.909,5.082
			c-3.882,6.68-7.965,13.015-12.105,18.677c-4.136,5.662-8.332,10.643-12.323,14.608c-3.971,3.972-7.827,6.912-10.744,8.617
			c-0.356,0.213-0.726,0.415-1.111,0.603c-0.349,0.181-0.616,0.334-0.949,0.485c-0.726,0.31-1.125,0.513-1.704,0.699
			c-0.874,0.333-1.68,0.461-1.818,0.48c-0.603,0.05,0.82-0.164,3.442,0.775c2.589,0.891,6.726,2.945,11.388,6.424
			c0.618,0.441,1.221,0.897,1.807,1.367c0.582,0.469,1.132,0.947,1.837,1.488c0.662,0.529,1.308,1.071,1.938,1.627
			c0.665,0.568,1.166,1.1,1.921,1.734c1.407,1.234,2.753,2.521,4.034,3.855c1.487,1.412,2.917,2.874,4.284,4.38
			c0.642,0.735,1.439,1.555,2.195,2.373c0.755,0.818,1.496,1.647,2.222,2.486c1.502,1.769,3.008,3.541,4.515,5.316
			c0.768,0.927,1.522,1.863,2.261,2.809l1.099,1.426l1.057,1.637c1.388,2.2,2.694,4.448,3.916,6.739l0.454,0.861
			c0.019,0.109,0.317,0.35,0.281,0.265l0.097-0.069l0.39-0.276l0.78-0.554l0.781-0.554l0.098-0.069
			c11.964,19.445-16.194-26.592-13.237-21.764l0.283,0.346l0.556,0.696c1.465,1.863,2.794,3.787,3.982,5.758l0.865,1.487
			c0.103,0.216,0.382,0.595,0.577,0.9l0.631,0.968c0.832,1.294,1.627,2.604,2.383,3.928c0.757,1.324,1.475,2.662,2.155,4.012
			l0.991,2.034c0.128,0.305,0.38,0.749,0.62,1.181c0.165,0.306,0.129,0.223,0.14,0.23l0.02-0.005
			c0.264-0.052,0.147-0.194,0.969-0.458c0.33-0.125,0.549-0.265,0.956-0.424c0.499-0.159,0.995-0.329,1.489-0.511l0.739-0.28
			l0.994-0.288l1.989-0.609c1.628-0.427,3.261-0.855,4.898-1.284c1.923-0.446,3.62-0.91,5.836-1.369l3.166-0.695l3.465-0.708
			c2.453-0.485,4.91-0.97,7.369-1.456l8.099-1.557l8.988-1.777l4.769-0.984l5.114-1.131c3.426-0.737,6.932-1.65,10.399-2.518
			c5.655-1.489,11.293-2.973,16.9-4.449c5.741-1.662,11.451-3.315,17.115-4.955c5.645-1.763,11.244-3.512,16.784-5.243
			c22.115-7.182,43.216-14.965,62.378-23.243c2.39-1.021,4.752-2.03,7.084-3.026c2.236-1.021,4.444-2.03,6.621-3.024
			c4.378-2.011,8.636-3.966,12.759-5.86c2.11-0.995,4.099-1.877,6.21-2.921c2.086-1.018,4.136-2.018,6.147-2.999
			c3.826-1.933,7.505-3.792,11.025-5.57c13.585-7.043,23.136-12.222,29.694-15.408c6.137-5.255,12.379-9.624,18.434-13.162
			c6.058-3.521,11.802-6.206,16.925-8.167l1.888-0.684l0.943-0.354l0.482-0.18l0.68-0.185c1.816-0.504,3.628-1.007,5.432-1.508
			c2.001-0.581,3.994-1.159,5.975-1.734c0.778-0.213,1.554-0.426,2.328-0.638c0.739-0.211,1.475-0.421,2.208-0.631
			c6.061-1.651,12.852-3.152,19.711-5.018c0,0-0.682,0.424-1.365,0.848c-0.645,0.438-1.289,0.877-1.289,0.877
			c5.225-1.164,15.301-2.548,30.41-3.717c8.01-0.573,16.935-1.211,26.526-1.897c2.553-0.204,5.151-0.412,7.789-0.623
			c2.719-0.242,5.479-0.487,8.277-0.735c2.881-0.293,5.8-0.589,8.752-0.89c1.456-0.14,3.043-0.354,4.57-0.53l2.32-0.28l1.164-0.141
			l0.583-0.071l0.292-0.036c0.046-0.007,0.103-0.01,0.14-0.02l-0.536-0.239c0.063,0.757,0.018,0.21,0.032,0.379h0l0,0l0,0l0.001,0
			l0.002,0l0.004-0.001l0.007-0.002l0.015-0.004l0.03-0.008l0.06-0.016l0.122-0.035c0.082-0.019,0.167-0.022,0.252-0.036
			c0.166,0.098,0.333,0.053,0.503,0.084c1.083,0.138,2.162,0.371,3.239,0.624c0.547,0.134,1.097,0.27,1.65,0.405
			c2.223,0.354,4.455,0.71,6.694,1.066c4.804,0.763,10.042,1.622,15.899,2.465c5.918,0.831,12.255,1.701,20.61,2.237
			c4.233,0.244,8.889,0.448,15.223,0.149c1.49-0.064,3.358-0.209,5.075-0.366c1.984-0.208,3.813-0.415,6.147-0.798
			c4.485-0.758,9.771-1.818,16.828-4.49c1.907-0.744,3.778-1.549,5.635-2.426c2.155-1.048,4.221-2.154,6.316-3.405
			c1.171-0.714,2.327-1.459,3.462-2.232l1.686-1.18c0.557-0.401,1.086-0.787,1.725-1.287c1.221-0.95,2.417-1.938,3.581-2.959
			c1.164-1.024,2.266-2.035,3.491-3.285c2.39-2.444,4.547-4.879,6.672-7.796c2.1-2.857,3.979-5.834,5.596-8.961
			c0.812-1.555,1.583-3.159,2.267-4.74c0.647-1.531,1.246-3.088,1.792-4.661c0.273-0.787,0.533-1.577,0.779-2.37
			c0.251-0.803,0.482-1.596,0.661-2.296c0.383-1.455,0.724-2.924,1.021-4.4c0.633-3.109,0.914-5.564,1.134-8.201l0.133-1.963
			l0.048-0.981l0.021-0.844c0.02-1.116,0.018-2.234-0.006-3.351c-0.025-1.108-0.072-2.252-0.142-3.323
			c-0.072-0.934-0.159-1.868-0.262-2.8c-0.2-1.829-0.483-3.855-0.762-5.258c-0.286-1.526-0.616-3.103-0.972-4.562
			c-0.327-1.271-0.678-2.536-1.053-3.793c-0.348-1.196-0.831-2.638-1.324-4.012l-0.765-2.058l-0.399-1.021l-0.204-0.508
			l-0.063-0.141l-0.376-0.792l-0.188-0.395l-0.678-1.608l-0.118-0.256l-0.239-0.51l-0.487-1.017
			c-0.657-1.352-1.346-2.69-2.064-4.007l-0.544-0.984l-0.464-0.781l-0.939-1.532c-0.634-1.016-1.285-2.021-1.95-3.013
			c-0.357-0.542-0.596-0.854-0.896-1.273l-0.866-1.181l-1.769-2.328c-0.316-0.412-0.566-0.711-0.826-1.023l-0.787-0.938
			c-2.205-2.639-4.065-4.555-5.978-6.492l-2.653-2.536c-0.909-0.863-1.661-1.497-2.503-2.246c-1.696-1.511-3.148-2.658-4.71-3.935
			c-1.459-1.137-2.947-2.297-4.335-3.31c-1.379-1.003-2.79-2.036-4.093-2.919c-1.335-0.927-2.648-1.818-3.91-2.635
			c-5.103-3.348-9.84-6.154-14.377-8.713c-4.532-2.549-8.856-4.843-12.998-6.93c-8.311-4.153-15.934-7.605-22.851-10.582
			c-13.814-5.918-24.79-9.925-31.725-12.235l5.588,2.752c-9.759-2.993-16.664-5.111-21.974-7.023
			c-5.312-1.894-9.057-3.481-12.51-5.1c-3.459-1.607-6.631-3.227-10.842-5.067c-4.213-1.831-9.449-3.925-17.142-6.252
			c1.287,2.643-6.703,2.297-16.701,1.13c-5.012-0.576-10.544-1.347-15.695-2.082c-5.183-0.76-9.956-1.46-13.352-1.958l0.739-0.788
			c-5.191-0.733-12.081-1.488-20.404-2.005c-4.137-0.269-8.689-0.443-13.573-0.506c-4.901-0.052-10.162,0.02-16,0.428l-2.228,0.176
			c-0.75,0.059-1.513,0.119-2.091,0.212c-1.25,0.17-2.506,0.34-3.766,0.511c-2.5,0.367-5.073,0.671-7.526,1.113
			c-4.878,0.92-9.838,1.742-14.471,2.847c-2.338,0.527-4.689,1.01-6.958,1.552c-2.245,0.56-4.471,1.114-6.667,1.662
			c-4.425,1.035-8.517,2.257-12.52,3.279l0.915-2.164c-13.169,4.446-31.484,10.329-48.326,16.426
			c-16.855,6.083-32.435,12.073-40.942,15.618c-19.687,7.456-44.223,17.457-70.131,28.112
			c-25.89,10.758-53.119,22.418-79.005,31.819c0,0-2.117,0.634-5.292,1.586c-1.589,0.484-3.444,1.049-5.43,1.655
			c-1.99,0.588-4.114,1.216-6.237,1.844c-4.249,1.324-8.527,2.426-11.745,3.355c-1.608,0.472-2.953,0.816-3.896,1.044
			c-0.943,0.239-1.483,0.375-1.483,0.375l-5.054,1.44c0,0-0.862,0.357-2.247,0.787c-1.385,0.447-3.296,1.035-5.386,1.596
			c-2.089,0.603-4.36,1.029-6.444,1.324c-2.083,0.315-3.974,0.495-5.292,0.557c-0.748,0-1.315,0-1.869,0
			c0.196,0.034,1.332-0.09,3.783,0.127c2.45,0.155,6.232,0.732,11.754,1.152c1.392,0.134,2.886,0.278,4.489,0.433
			c1.612,0.149,3.33,0.235,5.181,0.366c1.857,0.112,3.831,0.231,5.928,0.357c2.104,0.068,4.332,0.14,6.69,0.216l-1.164,0.251
			c0,0,0.934,0.01,2.335,0.026c1.407,0.031,3.273,0.022,5.132-0.026c3.737-0.071,7.474-0.142,7.474-0.142
			c4.481-0.113,8.348-0.347,11.632-0.511c3.259-0.262,5.921-0.477,7.989-0.643c4.147-0.338,5.883-0.56,5.343-0.237
			c0,0-1.518,0.149-3.825,0.295c-2.296,0.157-5.358,0.367-8.419,0.576c-3.063,0.189-6.143,0.307-8.436,0.426
			c-2.297,0.098-3.828,0.163-3.828,0.163c17.997-0.774,5.507,0.185-1.355,0.513c7.546-0.109,14.862-0.474,20.885-0.705
			c3.514-0.404-2.663-0.044-5.479,0.035c9.675-0.668,22.965-2.398,34.702-3.57c18.239-2.24,1.479,1.017,22.774-1.603
			c6.992-0.92,13.971-1.838,20.938-2.755c6.91-1.036,13.808-2.07,20.697-3.102c13.667-2.055,27.296-4.104,40.903-6.149
			c26.961-4.133,53.574-7.998,79.128-10.309c12.747-1.19,25.268-1.819,37.028-1.87c2.902,0.053,5.89-0.036,8.655,0.157
			c2.79,0.151,5.654,0.189,8.257,0.502l3.968,0.361c1.335,0.099,2.503,0.359,3.754,0.521l3.642,0.505l1.005,0.319l1.182,0.356
			c3.357,0.977,7.967,2.382,12.83,4.094c4.891,1.693,10.128,3.758,15.48,5.869c10.75,4.327,21.928,9.353,33.109,14.809
			c1.68,1.968-0.73,0.714-3.451-0.108c13.61,6.025,26.392,12.552,38.501,19.29c12.112,6.712,23.721,13.495,34.719,20.221
			c5.292,5.128,5.817,7.739,6.829,9.938c-0.437-0.814,3.259,1.307,8.336,5.07c2.478,1.839,5.361,4.172,7.213,6.093
			c0.266,0.253,0.436,0.46,0.608,0.665c0.184,0.21,0.382,0.425,0.447,0.563c0.074,0.141,0.273,0.35,0.219,0.4l0.002,0.114
			l0.001,0.013l0,0.003l0.149-0.159l0.337-0.358l1.338-1.421c0.827-0.906,1.656-1.814,2.487-2.724
			c3.307-3.591,7.092-7.234,10.229-10.451c1.661-1.643,3.372-3.259,5.132-4.845c1.658-1.553,3.155-3.001,4.826-4.451
			c3.503-2.943,6.268-5.471,9.57-7.863c0.877-0.61,1.477-1.142,2.211-1.684c0.711-0.538,1.44-1.06,2.184-1.567
			c0.743-0.507,1.511-0.998,2.28-1.471c0.63-0.452,1.279-0.886,1.947-1.3c0.667-0.415,1.353-0.81,2.056-1.185
			c0.336-0.186,0.743-0.372,1.033-0.544l0.859-0.496c0.583-0.319,1.185-0.615,1.805-0.887l0.944-0.388l0.24-0.091
			c-34.368,12.792-9.422,3.531-17.046,6.379l0.183-0.026l0.731-0.105l2.93-0.421l1.469-0.211l0.735-0.106
			c0.204-0.084,0.373-0.209,0.564-0.309c0.743-0.422,1.509-0.813,2.294-1.172c0.76-0.343,1.655-0.727,2.322-0.918
			c0.716-0.226,1.447-0.426,2.189-0.6l1.121-0.241c0.312-0.085,0.627-0.162,0.946-0.233c0.637-0.141,1.287-0.253,1.948-0.336
			c0.634-0.088,1.103-0.19,1.681-0.236c1.225-0.067,1.956-0.174,2.927-0.086c0.678-0.023,1.5,0.139,1.893,0.206
			c0.973,0.21,1.206,0.498,0.886,0.239c-0.284-0.225-1.163-1.123-1.984-2.707c-0.856-1.603-1.638-3.774-2.439-6.753l-0.529-2.288
			c-0.182-0.819-0.332-1.641-0.451-2.464c-0.184-0.929-0.338-1.859-0.463-2.791l-0.368-2.948
			c-0.932-8.205-1.174-18.524-0.709-31.137l0.2-4.896c0.076-1.675,0.172-3.348,0.286-5.019l0.339-5.37l0.427-5.478
			c0.245-2.621,0.12-1.676,0.131-1.88l-0.042-0.055c-0.031-0.035-0.159-0.09-0.234-0.13c-0.874-0.374-3.067-0.978-5.7-1.754
			c-3.101-0.908-6.18-1.81-9.21-2.697c-1.799-0.523-3.584-1.041-5.351-1.554c-0.951-0.267-1.898-0.532-2.838-0.796l-1.466-0.401
			l-1.996-0.522c-1.724-0.41-3.466-0.899-5.195-1.396c-1.74-0.435-3.499-0.66-5.205-1.18c-1.706-0.517-3.437-0.77-5.142-1.105
			c-1.699-0.419-3.381-0.852-5.071-1.069c-6.737-1.078-13.261-1.841-19.47-1.913c-0.704,0.028-1.403,0.056-2.098,0.084
			c-0.693,0.053-1.387,0.011-2.065,0.147c-0.705,0.011-1.405,0.022-2.1,0.034l-1.042,0.01l-0.518,0.006l-0.258,0.003l-0.129,0.002
			l-0.064,0.001l-0.032,0l-0.016,0l-0.008,0l-0.004,0l-0.002,0h-0.001c0.017,0.214-0.04-0.478,0.039,0.479
			c-1.4-0.61-0.96-0.361-1.172-0.417l-0.289-0.004l-0.573-0.008c-0.38-0.005-0.756-0.011-1.127-0.016
			c-0.742-0.01-1.468-0.019-2.177-0.028c-1.404-0.013-2.918-0.082-4.246-0.117c-1.365-0.046-2.647-0.089-3.837-0.129
			c-1.247-0.058-2.398-0.112-3.445-0.16c-1.046-0.053-1.987-0.101-2.816-0.142c-0.872-0.057-1.625-0.106-2.25-0.147
			C840.393,310.007,839.654,309.935,839.499,309.884z"/>
	</g>
</g>
<g>
	<path fill="#FFC435" d="M944.48,618.242c2.43,20.178,5.269,51.399,16.039,69.899c12.352,21.217,50.605,17.842,60.333-2.613
		c6.108-12.844,10.446-57.701,11.356-71.491"/>
</g>
<g>
	<path fill="#0D10CA" d="M452.024,596.007c-1.784,0-3.341-0.499-4.628-1.482c-5.728-4.375-52.911-45.58-69.333-62.776
		c-2.519-2.638-3.552-5.026-3.25-7.517c0.679-5.592,7.967-11.138,24.045-21.452c13.772-8.834,20.631-11.965,26.211-11.965
		c4.724,0,8.388,2.453,12.436,6.136c6.568,5.975,20.583,19.025,34.136,31.644c12.596,11.728,24.492,22.804,28.156,26.096
		c1.074,0.966,1.578,2.171,1.496,3.583c-0.395,6.799-15.055,17.221-22.932,22.819l-0.575,0.408
		c-1.329,0.946-2.763,2.019-4.264,3.141C466.401,589.968,458.329,596.007,452.024,596.007z M425.069,492.149
		c-5.217,0-12.121,3.185-25.474,11.75c-15.395,9.875-22.829,15.461-23.44,20.492c-0.251,2.067,0.668,4.114,2.892,6.443
		c16.387,17.159,63.463,58.271,69.178,62.635c1.058,0.809,2.302,1.203,3.8,1.203c5.851,0,14.074-6.152,20.682-11.096
		c1.51-1.13,2.952-2.209,4.289-3.159l0.575-0.409c7.146-5.08,22.014-15.648,22.372-21.812c0.058-1.005-0.287-1.828-1.056-2.519
		c-3.673-3.3-15.573-14.381-28.174-26.112c-13.551-12.616-27.563-25.663-34.125-31.634
		C432.665,494.362,429.369,492.149,425.069,492.149z"/>
</g>
<g>
	<path fill="#0D10CA" d="M486.759,591.068c-1.605,0-3.082-0.512-4.158-1.441c-1.083-0.936-1.671-2.213-1.654-3.596
		c0.02-1.58,0.835-3.145,2.236-4.295c1.344-1.103,3.129-1.736,4.898-1.736c1.605,0,3.082,0.512,4.158,1.441
		c1.083,0.936,1.671,2.213,1.654,3.597c-0.02,1.578-0.835,3.145-2.236,4.295C490.311,590.436,488.527,591.068,486.759,591.068z
		 M488.081,581.334c-1.458,0-2.928,0.52-4.033,1.428c-1.097,0.901-1.734,2.097-1.749,3.285c-0.013,0.985,0.411,1.9,1.192,2.575
		c1.776,1.533,5.227,1.384,7.302-0.317c1.096-0.901,1.733-2.098,1.749-3.285c0.013-0.987-0.411-1.901-1.192-2.576
		C490.52,581.729,489.359,581.334,488.081,581.334z"/>
</g>
<g>
	<path fill="#0D10CA" d="M390.15,503.302c-0.659,0-1.038-0.277-1.24-0.51c-0.331-0.38-0.35-0.764-0.309-1.02
		c0.158-0.98,1.446-1.75,3.58-3.027l1.776-1.076c2.036-1.249,3.644-2.235,4.778-2.235c0.588,0,0.936,0.259,1.124,0.476
		c0.265,0.305,0.373,0.672,0.311,1.061c-0.172,1.078-1.623,2.137-4.419,3.831C393.204,502.346,391.379,503.302,390.15,503.302z
		 M398.836,496.762c-0.85,0.008-2.536,1.042-4.166,2.042l-1.789,1.084c-1.265,0.757-2.84,1.699-2.946,2.099
		c0.02-0.041,0.096-0.02,0.215-0.02c1.095,0,3.662-1.555,4.894-2.302C397.536,498.155,398.812,497.178,398.836,496.762z"/>
</g>
<g>
	<path fill="#0D10CA" d="M426.809,520.62c0,0,0.123,0.469,0.306,1.294c0.169,0.827,0.45,2.003,0.717,3.424
		c0.554,2.839,1.178,6.64,1.695,10.455c0.346,3.844,0.571,7.702,0.657,10.598c0.053,1.447,0.036,2.656,0.053,3.5
		c0.003,0.845-0.014,1.328-0.014,1.328s-0.102-0.475-0.248-1.308c-0.132-0.834-0.361-2.021-0.564-3.45
		c-0.428-2.856-0.871-6.667-1.223-10.491c-0.507-3.816-0.907-7.647-1.122-10.531c-0.117-1.441-0.156-2.649-0.211-3.492
		C426.814,521.105,426.809,520.62,426.809,520.62z"/>
</g>
<g>
	<path fill="#0D10CA" d="M436.242,517.626c0,0,0.142,0.72,0.392,1.981c0.221,1.264,0.59,3.063,0.936,5.235
		c0.345,2.172,0.79,4.701,1.189,7.42c0.414,2.718,0.805,5.623,1.2,8.528c0.367,2.907,0.739,5.813,1.039,8.545
		c0.317,2.729,0.536,5.289,0.763,7.477c0.226,2.188,0.332,4.026,0.445,5.306c0.084,1.285,0.132,2.019,0.132,2.019
		s-0.142-0.719-0.392-1.978c-0.221-1.263-0.591-3.06-0.936-5.232c-0.344-2.172-0.792-4.7-1.189-7.421
		c-0.414-2.719-0.804-5.627-1.199-8.534c-0.367-2.909-0.738-5.817-1.038-8.55c-0.315-2.731-0.537-5.29-0.764-7.478
		c-0.225-2.188-0.332-4.023-0.445-5.302C436.291,518.359,436.242,517.626,436.242,517.626z"/>
</g>
<g>
	<path fill="#0D10CA" d="M632.806,672.175c0,0-0.716,0.197-1.969,0.541c-1.259,0.316-3.047,0.821-5.212,1.332
		c-2.166,0.51-4.683,1.146-7.398,1.753c-2.711,0.621-5.614,1.234-8.516,1.85c-2.906,0.589-5.81,1.183-8.545,1.693
		c-2.73,0.526-5.297,0.943-7.489,1.338c-2.192,0.394-4.038,0.642-5.322,0.854c-1.291,0.183-2.028,0.288-2.028,0.288
		s0.715-0.197,1.966-0.541c1.258-0.316,3.043-0.822,5.208-1.332c2.166-0.509,4.683-1.148,7.399-1.753
		c2.712-0.621,5.617-1.233,8.521-1.85c2.908-0.589,5.815-1.182,8.551-1.693c2.732-0.524,5.298-0.943,7.49-1.338
		c2.192-0.393,4.036-0.643,5.318-0.854C632.069,672.28,632.806,672.175,632.806,672.175z"/>
</g>
<g>
	<path fill="#0D10CA" d="M614.908,703.356c0,0-0.367,0.147-1.018,0.372c-0.654,0.212-1.578,0.553-2.704,0.895
		c-0.563,0.169-1.174,0.352-1.819,0.546c-0.644,0.196-1.346,0.337-2.066,0.497c-1.44,0.325-2.989,0.623-4.537,0.925
		c-1.539,0.272-3.077,0.549-4.53,0.76c-0.721,0.127-1.435,0.188-2.09,0.319c-0.661,0.113-1.286,0.221-1.862,0.32
		c-1.156,0.195-2.137,0.301-2.818,0.402c-0.685,0.088-1.082,0.121-1.082,0.121s0.365-0.146,1.015-0.372
		c0.653-0.212,1.578-0.555,2.71-0.898c0.567-0.17,1.181-0.354,1.831-0.549c0.651-0.199,1.347-0.337,2.066-0.497
		c1.437-0.325,2.98-0.62,4.522-0.92c1.533-0.27,3.066-0.544,4.515-0.756c0.721-0.127,1.428-0.185,2.09-0.318
		c0.665-0.114,1.294-0.223,1.874-0.323c1.162-0.196,2.143-0.303,2.824-0.405C614.513,703.389,614.908,703.356,614.908,703.356z"/>
</g>
<g>
	<path fill="#0D10CA" d="M671.249,690.458c0,0-0.747,0.203-2.053,0.558c-1.313,0.327-3.176,0.848-5.434,1.378
		c-2.258,0.528-4.882,1.187-7.711,1.817c-2.826,0.644-5.851,1.282-8.875,1.924c-3.028,0.614-6.055,1.233-8.904,1.766
		c-2.845,0.55-5.518,0.988-7.802,1.402c-2.283,0.413-4.206,0.677-5.543,0.899c-1.344,0.195-2.112,0.306-2.112,0.306
		s0.746-0.203,2.05-0.558c1.312-0.327,3.173-0.849,5.43-1.378c2.257-0.528,4.881-1.189,7.712-1.817
		c2.827-0.645,5.854-1.282,8.88-1.924c3.03-0.614,6.059-1.232,8.909-1.766c2.847-0.548,5.52-0.989,7.803-1.402
		c2.283-0.412,4.203-0.677,5.539-0.899C670.483,690.569,671.249,690.458,671.249,690.458z"/>
</g>
<g>
	<path fill="#0D10CA" d="M657.735,711.809c0,0-0.747,0.203-2.053,0.558c-1.313,0.327-3.176,0.848-5.434,1.378
		c-2.258,0.528-4.882,1.187-7.711,1.817c-2.826,0.644-5.851,1.282-8.875,1.924c-3.028,0.614-6.055,1.233-8.904,1.766
		c-2.845,0.55-5.519,0.988-7.802,1.402c-2.283,0.413-4.206,0.677-5.543,0.899c-1.344,0.195-2.112,0.306-2.112,0.306
		s0.746-0.203,2.05-0.558c1.312-0.327,3.173-0.849,5.43-1.378c2.257-0.528,4.881-1.189,7.712-1.817
		c2.827-0.645,5.854-1.282,8.88-1.924c3.03-0.614,6.059-1.232,8.91-1.766c2.847-0.548,5.52-0.989,7.803-1.402
		c2.283-0.412,4.203-0.677,5.539-0.899C656.969,711.92,657.735,711.809,657.735,711.809z"/>
</g>
<g>
	<path fill="#0D10CA" d="M652.33,735.83c0,0-0.747,0.203-2.053,0.558c-1.313,0.327-3.176,0.848-5.434,1.378
		c-2.258,0.528-4.882,1.187-7.711,1.817c-2.826,0.644-5.851,1.282-8.875,1.924c-3.028,0.614-6.055,1.233-8.904,1.766
		c-2.845,0.55-5.519,0.988-7.802,1.402c-2.283,0.413-4.206,0.677-5.543,0.899c-1.344,0.195-2.112,0.306-2.112,0.306
		s0.746-0.203,2.05-0.558c1.312-0.327,3.173-0.849,5.43-1.378c2.257-0.528,4.881-1.189,7.712-1.817
		c2.827-0.644,5.854-1.282,8.88-1.924c3.03-0.614,6.059-1.232,8.909-1.766c2.847-0.548,5.52-0.989,7.803-1.402
		c2.283-0.412,4.203-0.677,5.539-0.899C651.563,735.941,652.33,735.83,652.33,735.83z"/>
</g>
<g>
	<path fill="#0D10CA" d="M688.273,704.106c0,0-0.31,0.135-0.859,0.34c-0.553,0.192-1.334,0.503-2.287,0.81
		c-0.476,0.157-0.991,0.327-1.541,0.489c-0.545,0.176-1.144,0.296-1.757,0.434c-1.227,0.282-2.548,0.533-3.869,0.788
		c-1.309,0.225-2.618,0.455-3.855,0.622c-0.613,0.105-1.223,0.144-1.779,0.255c-0.558,0.105-1.091,0.188-1.584,0.263
		c-0.983,0.16-1.822,0.236-2.403,0.317c-0.585,0.068-0.926,0.089-0.926,0.089s0.307-0.135,0.856-0.339
		c0.552-0.192,1.334-0.505,2.294-0.813c0.479-0.159,1-0.329,1.555-0.492c0.553-0.179,1.145-0.296,1.757-0.434
		c1.223-0.281,2.537-0.529,3.851-0.783c1.303-0.223,2.604-0.45,3.837-0.617c0.613-0.105,1.215-0.141,1.779-0.255
		c0.564-0.106,1.101-0.189,1.597-0.266c0.99-0.161,1.83-0.239,2.41-0.32C687.935,704.127,688.273,704.106,688.273,704.106z"/>
</g>
<g>
	<path fill="#0D10CA" d="M446.402,533.537c0,0,0.417,1.132,0.865,2.858c0.459,1.724,0.958,4.042,1.351,6.376
		c0.383,2.336,0.661,4.689,0.782,6.468c0.132,1.777,0.101,2.981,0.101,2.981s-0.418-1.131-0.867-2.857
		c-0.46-1.724-0.957-4.042-1.349-6.376c-0.383-2.336-0.658-4.69-0.78-6.468C446.373,534.741,446.402,533.537,446.402,533.537z"/>
</g>
<g>
	<path fill="#50BACD" d="M547.845,435.203c-3.553,10.436-1.75,8.104-2.453,11.808c-0.97,5.11,7.144,8.887,10.172,11.053
		c10.634,7.605,22.018,14.006,33.169,20.758c65.598,39.726,122.484,68.571,191.44,107.565c11.634,6.579,23.172,13.477,34.623,20.698
		c6.238,3.934,16.103,8.338,23.409,9.315c12.218,1.634,16.552-12.504,25.427-25.787c20.291-30.369,38.776-58.06,57.454-88.422
		c8.938-14.53,32.637-49.971,36.819-59.424c0,0,1.205-10.664-0.708-11.399"/>
</g>
<g>
	<path fill="#FFE7E5" d="M659.724,301.719c-6.176,6.005-70.786,80.226-92.654,107.613c-4.303,5.388-20.78,21.519-20.273,29.535
		c0.309,4.885,7.116,8.45,10.12,10.517c10.55,7.256,21.831,13.376,32.883,19.827c64.999,37.941,120.857,68.438,189.123,105.713
		c11.514,6.287,22.935,12.875,34.271,19.767c6.174,3.754,15.929,7.974,23.139,8.94c12.058,1.615,16.256-11.721,24.938-24.225
		c19.855-28.594,38.343-57.619,56.613-86.22c8.745-13.69,35.237-52.905,39.313-61.818L659.724,301.719z"/>
</g>
<g>
	<path fill="#50BACD" d="M663.148,302.061c-1.782-2.48-1.355-32.188-1.395-41.902c-0.064-15.524-0.704-30.654-1.742-52.536
		c-0.837-17.65-1.275-34.003-1.288-53.096c-0.01-15.066-1.436-27.89-0.268-39.795c1.678-2.367,24.454,6.118,55.521,18.457
		c20.338,8.078,59.573,22.633,80.432,30.698c23.858,9.226,47.175,16.394,73.585,26.859c20.786,8.236,94.65,32.513,96.382,35.097
		c1.921,2.866,3.287,50.496,2.815,61.477c-1.017,23.678-0.743,47.551-1.592,71.502c-0.895,25.259-2.863,50.764-3.55,70.088
		c-0.123,3.455-3.181,6.477-3.181,6.477"/>
</g>
<g>
	<path fill="#0D10CA" d="M666.922,298.255c0.376-8.195-0.385-59.608-0.578-79.027c-0.145-14.554-1.711-33.911-1.836-51.824
		c-0.138-19.952-1.614-31.478-0.634-42.002c6.701,0.827,25.947,8.665,55.168,19.825c19.12,7.302,55.752,21.913,75.339,29.204
		c22.394,8.337,53.064,19.411,81.051,30.099c19.594,7.483,79.533,27.457,81.167,29.753c1.812,2.546,2.549,47.729,2.176,57.415
		c-0.803,20.877-0.371,42.388-1.015,63.484c-0.679,22.233-2.986,51.227-5.198,68.067L666.922,298.255z"/>
	<path fill="#0D10CA" d="M953.116,424.221l-286.89-125.541l0.021-0.455c0.29-6.312-0.096-38.3-0.379-61.656
		c-0.082-6.844-0.156-12.917-0.2-17.335c-0.067-6.749-0.44-14.518-0.835-22.744c-0.459-9.576-0.934-19.478-1.001-29.082
		c-0.057-8.202-0.338-14.922-0.585-20.851c-0.35-8.37-0.626-14.98-0.046-21.217l0.064-0.686l0.693,0.085
		c5.487,0.677,19.02,5.892,39.503,13.786c4.888,1.884,10.17,3.919,15.825,6.079c7.875,3.008,18.68,7.239,30.119,11.719
		c16.567,6.488,33.698,13.196,45.214,17.484c7.544,2.808,16.027,5.928,25.031,9.238c17.559,6.457,37.463,13.774,56.025,20.863
		c7.322,2.796,20.158,7.294,33.747,12.056c28.984,10.157,46.66,16.432,47.729,17.935c2.032,2.856,2.628,49.271,2.299,57.824
		c-0.43,11.153-0.507,22.693-0.582,33.852c-0.066,9.736-0.133,19.803-0.433,29.626c-0.648,21.186-2.885,50.477-5.204,68.133
		L953.116,424.221z M667.615,297.829l284.391,124.447c2.274-17.7,4.444-46.318,5.078-67.115c0.3-9.807,0.367-19.866,0.433-29.594
		c0.075-11.171,0.152-22.721,0.582-33.895c0.389-10.127-0.443-54.562-2.055-57.007c-1.424-1.447-26.735-10.316-47.073-17.444
		c-13.599-4.765-26.443-9.267-33.784-12.069c-18.554-7.086-38.453-14.402-56.009-20.857c-9.005-3.311-17.49-6.431-25.037-9.24
		c-11.527-4.291-28.662-11.002-45.234-17.492c-11.437-4.479-22.239-8.709-30.11-11.715c-5.655-2.16-10.938-4.196-15.828-6.08
		c-19.554-7.536-32.744-12.619-38.485-13.602c-0.49,5.947-0.223,12.332,0.112,20.335c0.248,5.94,0.529,12.672,0.587,20.897
		c0.066,9.577,0.541,19.465,1,29.028c0.395,8.238,0.769,16.02,0.836,22.795c0.044,4.417,0.117,10.49,0.2,17.332
		C667.495,259.411,667.871,290.529,667.615,297.829z"/>
</g>
<g>
	<path fill="#0D10CA" d="M913.066,423.874c-1.278,0-2.713-0.334-4.334-1.005c-3.478-1.439-59.457-26.442-112.956-50.396
		c-33.578-15.034-64.21-29.049-82.512-37.422c-9.736-4.454-16.169-7.397-17.322-7.873c-3.025-1.25-4.548-2.484-4.938-4.003
		c-0.484-1.887,0.884-3.756,2.871-6.19l1.052,0.838c-1.682,2.061-2.943,3.74-2.613,5.025c0.267,1.043,1.625,2.056,4.149,3.099
		c1.177,0.486,7.272,3.274,17.37,7.894c18.299,8.372,48.929,22.385,82.5,37.417c53.491,23.951,109.456,48.947,112.921,50.382
		c2.407,0.995,4.284,1.164,5.743,0.514c2.096-0.932,3.142-3.547,3.959-5.926l1.28,0.429c-0.908,2.644-2.093,5.561-4.684,6.714
		C914.799,423.705,913.973,423.874,913.066,423.874z"/>
</g>
<g>
	<path fill="#0D10CA" d="M802.577,172.312c-0.148,0.982-1.044,1.68-2.001,1.558c-0.957-0.121-1.612-1.015-1.464-1.996
		c0.148-0.981,1.043-1.679,2-1.558C802.069,170.437,802.725,171.33,802.577,172.312z"/>
</g>
<g>
	<path fill="#CCEEFB" d="M661.024,314.512c-5.292-2.112-13.666,10.9-16.95,14.667c-6.171,7.078-12.421,13.918-17.808,21.602
		c-6.092,8.691-19.484,22.003-26.381,29.926c-3.418,3.926-10.205,11.721-6.46,15.611c5.503,5.715,26.285,15.668,44.372,24.526
		c18.482,9.052,37.286,18.767,55.619,28.694c17.909,9.697,36.099,17.154,54.12,27.079c15.469,8.52,91.033,46.193,98.822,49.99
		c5.936,2.893,16.737,11.74,23.313,7.609c4.368-2.744,15.848-21.383,22.453-31.901c7.063-11.247,42.403-59.27,41.935-61.297
		c-0.801-3.472-37.827-15.993-56.548-25.59c-29.824-15.288-53.054-24.913-80.486-37.621c-15.672-7.26-31.91-14.593-47.575-21.517
		c-13.207-5.838-26.442-12.427-39.501-18.309c-10.439-4.701-20.406-8.791-30.202-14.641
		C679.748,323.339,665.489,316.294,661.024,314.512z"/>
</g>
<g>
	<path fill="#0D10CA" d="M723.801,535.513c-6.311,0-17.03-6.331-26.488-11.918c-3.056-1.805-5.942-3.51-8.386-4.818
		c-3.642-1.951-7.441-3.757-11.114-5.503c-6.031-2.868-12.268-5.833-17.99-9.522c-13.926-8.977-19.023-15.09-16.528-19.821
		c1.7-3.223,4.242-6.772,6.485-9.903l1.158-1.622c2.237-3.152,4.356-6.461,6.406-9.662c1.061-1.657,2.123-3.315,3.205-4.96
		c0.415-0.631,0.824-1.263,1.229-1.89c3.706-5.734,7.208-11.15,12.77-11.15c1.415,0,2.927,0.364,4.494,1.083
		c2.426,1.114,6.174,3.379,9.48,5.378c2.03,1.227,3.948,2.387,5.353,3.157c4.505,2.47,9.025,4.572,13.397,6.606
		c4.684,2.179,9.526,4.432,14.341,7.134c1.56,0.875,3.125,1.808,4.701,2.747c3.946,2.35,8.027,4.781,12.214,6.392
		c4.149,1.596,10.04,5.82,12.865,9.225c3.937,4.743-0.174,11.085-3.177,15.715c-0.705,1.088-1.37,2.114-1.871,3.018
		c-4.078,7.348-12.64,21.603-18.252,28.567C727.16,534.925,725.714,535.513,723.801,535.513z M674.549,446.079
		c-4.822,0-8.13,5.116-11.631,10.534c-0.407,0.629-0.818,1.265-1.235,1.899c-1.08,1.641-2.138,3.293-3.196,4.946
		c-2.058,3.214-4.186,6.536-6.441,9.715l-1.162,1.626c-2.218,3.096-4.733,6.605-6.39,9.749c-1.306,2.476-1.061,7.045,16.069,18.087
		c5.648,3.641,11.845,6.587,17.838,9.437c3.688,1.753,7.501,3.568,11.172,5.533c2.469,1.321,5.367,3.034,8.436,4.847
		c8.846,5.225,19.857,11.728,25.794,11.728c1.502,0,2.56-0.407,3.235-1.245c5.56-6.899,14.068-21.067,18.125-28.377
		c0.524-0.943,1.201-1.989,1.919-3.096c2.932-4.525,6.583-10.157,3.269-14.15c-2.703-3.258-8.339-7.301-12.31-8.827
		c-4.296-1.652-8.426-4.113-12.421-6.493c-1.565-0.932-3.12-1.859-4.671-2.729c-4.771-2.677-9.589-4.918-14.25-7.086
		c-4.391-2.043-8.933-4.155-13.476-6.647c-1.43-0.784-3.359-1.95-5.402-3.186c-3.276-1.98-6.989-4.224-9.345-5.305
		C677.086,446.401,675.765,446.079,674.549,446.079z"/>
</g>
<g>
	<ellipse fill="#FFE7E5" cx="988.202" cy="614.037" rx="44.006" ry="25.232"/>
</g>
<g>
	<ellipse fill="#FF473E" cx="988.202" cy="614.037" rx="39.117" ry="19.625"/>
</g>
<g>
	<path fill="#FFC435" d="M1030.079,605.626c10.166-2.902,23.393,9.513,21.523,26.133c-2.074,18.436-6.618,33.443-25.781,38.349
		l1.42-8.411c11.356-2.804,15.46-14.041,17.035-28.036c1.42-12.616-4.349-21.828-12.066-19.625"/>
</g>
<g>
	<path fill="#0D10CA" d="M1019.432,625.251c-4.277-8.224-21.414-5.604-29.199-5.602c-5.267,0.001-11.112-0.513-15.961,0.637
		c-4.701,1.115-10.912,3.422-13.751,6.226c0,0,9.984,7.367,27.681,7.149S1019.432,625.251,1019.432,625.251z"/>
	<path fill="#0D10CA" d="M987.434,634.335c-17.244-0.001-26.915-6.99-27.317-7.288l-0.626-0.461l0.552-0.545
		c3.016-2.978,9.465-5.311,14.071-6.404c2.873-0.68,6.019-0.768,8.438-0.768c1.303,0,2.614,0.029,3.914,0.057
		c1.267,0.029,2.523,0.056,3.747,0.056c1.362,0,3.033-0.082,4.801-0.168c2.216-0.108,4.726-0.231,7.257-0.231
		c6.204,0,14.796,0.659,17.761,6.362l0.286,0.55l-0.533,0.323c-0.137,0.083-13.898,8.292-31.576,8.51L987.434,634.335z
		 M961.612,626.432c2.482,1.556,11.587,6.567,25.822,6.568l0.76-0.005c15.29-0.188,27.585-6.481,30.318-7.99
		c-2.914-4.546-10.611-5.086-16.241-5.086c-2.497,0-4.99,0.121-7.19,0.229c-1.786,0.086-3.472,0.169-4.849,0.169
		c-1.254,0-2.519-0.027-3.797-0.056c-1.289-0.029-2.591-0.057-3.884-0.057c-2.345,0-5.388,0.082-8.122,0.731
		C969.986,621.989,964.487,624.057,961.612,626.432z"/>
</g>
<g>
	<path fill="#FFFFFF" d="M746.742,287.942c0,0,1.939-0.62,5.332-1.705c1.693-0.551,3.749-1.22,6.107-1.988
		c2.348-0.793,4.998-1.688,7.888-2.664c2.889-0.977,5.993-2.105,9.261-3.327c3.239-1.276,6.664-2.666,10.266-3.948
		c3.62-1.283,7.374-2.502,11.205-3.689c3.827-1.186,7.715-2.391,11.603-3.596c1.936-0.614,3.872-1.227,5.801-1.839
		c1.918-0.648,3.828-1.294,5.724-1.934c3.782-1.31,7.55-2.511,11.191-3.675c7.295-2.244,14.104-4.338,19.94-6.133
		c2.904-0.934,5.567-1.79,7.926-2.548c2.343-0.804,4.403-1.465,6.073-2.078c3.341-1.23,5.251-1.932,5.251-1.932
		s-1.875,0.792-5.155,2.178c-1.648,0.677-3.681,1.415-5.998,2.308c-2.322,0.878-4.969,1.792-7.855,2.793
		c-5.792,1.94-12.553,4.198-19.819,6.519c-3.619,1.187-7.357,2.41-11.136,3.751c-3.769,1.324-7.651,2.652-11.538,3.86
		c-3.897,1.179-7.794,2.357-11.631,3.517c-3.832,1.158-7.589,2.35-11.17,3.592c-3.59,1.266-7.016,2.611-10.321,3.799
		c-3.312,1.149-6.451,2.206-9.369,3.116c-5.82,1.867-10.735,3.21-14.165,4.175C748.719,287.45,746.742,287.942,746.742,287.942z"/>
</g>
<g>
	<path fill="#FFFFFF" d="M780.527,303.955c0,0,1.297-0.415,3.568-1.141c1.134-0.366,2.51-0.81,4.089-1.319
		c1.573-0.522,3.349-1.111,5.285-1.754c1.937-0.64,4.018-1.378,6.209-2.176c2.169-0.837,4.474-1.739,6.897-2.566
		c4.87-1.66,10.112-3.135,15.32-4.709c2.615-0.764,5.182-1.573,7.741-2.408c2.543-0.837,5.078-1.604,7.527-2.347
		c4.894-1.473,9.497-2.708,13.41-3.869c1.955-0.584,3.748-1.119,5.337-1.593c1.58-0.5,2.968-0.912,4.094-1.295
		c2.257-0.763,3.547-1.199,3.547-1.199s-1.256,0.526-3.455,1.446c-2.223,0.86-5.407,2.084-9.291,3.364
		c-3.887,1.265-8.416,2.762-13.294,4.256c-2.428,0.767-4.935,1.557-7.474,2.424c-2.528,0.855-5.145,1.717-7.754,2.495
		c-5.235,1.524-10.5,2.95-15.312,4.534c-2.411,0.838-4.741,1.648-6.95,2.416c-2.233,0.725-4.348,1.392-6.312,1.964
		c-3.917,1.181-7.23,1.995-9.538,2.595C781.859,303.662,780.527,303.955,780.527,303.955z"/>
</g>
<g>
	<path fill="#FFFFFF" d="M722.416,251.91c0,0,1.042-0.378,2.866-1.04c0.911-0.332,2.017-0.736,3.285-1.198
		c1.263-0.473,2.688-1.006,4.243-1.588c1.555-0.578,3.223-1.244,4.976-1.963c1.732-0.753,3.578-1.563,5.526-2.307
		c3.922-1.496,8.148-2.828,12.341-4.247c2.109-0.687,4.167-1.41,6.228-2.16c2.045-0.75,4.09-1.439,6.065-2.107
		c3.944-1.325,7.663-2.424,10.818-3.463c3.15-1.048,5.785-1.896,7.602-2.572c1.818-0.676,2.857-1.062,2.857-1.062
		s-1.002,0.475-2.755,1.306c-1.778,0.776-4.324,1.887-7.447,3.044c-3.125,1.142-6.763,2.501-10.69,3.847
		c-1.952,0.69-3.966,1.401-6.007,2.181c-2.028,0.768-4.14,1.547-6.241,2.248c-4.222,1.369-8.473,2.653-12.334,4.07
		c-1.937,0.749-3.809,1.473-5.585,2.159c-1.8,0.648-3.505,1.244-5.09,1.756c-3.159,1.058-5.842,1.778-7.708,2.314
		C723.496,251.651,722.416,251.91,722.416,251.91z"/>
</g>
<g>
	<path fill="#FFFFFF" d="M764.31,259.917c0,0,2.388-0.941,5.969-2.353c0.903-0.33,1.85-0.748,2.854-1.181
		c0.993-0.439,2.102-0.891,3.208-1.327c1.103-0.465,2.305-0.862,3.513-1.272c1.201-0.397,2.42-0.799,3.64-1.202
		c2.41-0.794,4.814-1.7,7.134-2.416c2.297-0.734,4.465-1.321,6.301-1.89c1.832-0.576,3.378-1.006,4.44-1.37
		c1.068-0.354,1.678-0.556,1.678-0.556s-0.574,0.291-1.578,0.8c-1.023,0.466-2.482,1.158-4.286,1.843
		c-1.804,0.68-3.902,1.499-6.168,2.293c-2.243,0.813-4.639,1.722-7.095,2.561c-1.222,0.388-2.443,0.777-3.646,1.159
		c-1.184,0.402-2.365,0.722-3.493,1.16c-1.142,0.419-2.205,0.796-3.267,1.155c-1.052,0.362-2.042,0.713-2.972,0.975
		c-1.841,0.587-3.415,0.946-4.505,1.227C764.944,259.798,764.31,259.917,764.31,259.917z"/>
</g>
<g>
	<path fill="#FFFFFF" d="M847.849,304.027c0,0,2.388-0.941,5.969-2.353c0.903-0.33,1.85-0.748,2.854-1.181
		c0.993-0.439,2.102-0.891,3.208-1.327c1.103-0.465,2.305-0.862,3.513-1.272c1.201-0.397,2.42-0.799,3.64-1.202
		c2.41-0.794,4.814-1.7,7.134-2.416c2.297-0.734,4.465-1.321,6.301-1.89c1.832-0.576,3.378-1.006,4.44-1.37
		c1.068-0.354,1.678-0.556,1.678-0.556s-0.574,0.291-1.578,0.8c-1.023,0.466-2.482,1.158-4.286,1.843
		c-1.804,0.68-3.902,1.499-6.168,2.293c-2.243,0.813-4.639,1.722-7.095,2.561c-1.222,0.388-2.443,0.777-3.646,1.159
		c-1.184,0.402-2.365,0.722-3.493,1.16c-1.142,0.419-2.205,0.796-3.267,1.155c-1.052,0.362-2.042,0.713-2.972,0.975
		c-1.841,0.587-3.415,0.946-4.505,1.227C848.483,303.907,847.849,304.027,847.849,304.027z"/>
</g>
<g>
	<path fill="#FFE7E5" d="M624.691,655.842c9.374-1.225,19.289-0.998,29.21-0.967c9.734,0.026,18.188-2.851,27.85-1.993
		c8.568,30.833,19.208,72.556,27.442,103.324c7.341,27.434,14.53,46.26,17.607,74.442c-7.014,0.953-45.79,5.25-59.134,4.961
		c-12.876-0.288-29.071,1.289-41.581,1.965c-17.157,0.907-33.372,4.687-50.733,3.528c-5.838-18.736-6.781-35.366-12.962-54.06
		c-5.613-17.073-10.45-44.701-14.553-61.739c-5.503-23.025-9.017-41.623-12.589-64.595
		C535.246,660.708,596.866,659.422,624.691,655.842z"/>
</g>
<g>
	<path fill="#0D10CA" d="M582.113,841.989c-2.327,0-4.617-0.074-6.807-0.22l-0.464-0.031l-0.137-0.438
		c-2.819-9.049-4.524-17.725-6.173-26.115c-1.766-8.984-3.592-18.274-6.785-27.934c-3.753-11.415-7.189-27.671-10.221-42.014
		c-1.533-7.254-2.981-14.105-4.347-19.778c-5.245-21.945-8.778-40.07-12.6-64.647l-0.117-0.753l0.77-0.016
		c0.616-0.013,61.902-1.327,89.372-4.861c6.786-0.886,13.8-1.009,20.369-1.009c1.794,0,3.593,0.01,5.394,0.02l3.536,0.017
		c0.001,0,0.002,0,0.003,0c4.327,0,8.354-0.551,12.249-1.084c3.84-0.525,7.81-1.069,11.885-1.069c1.305,0,2.539,0.053,3.771,0.163
		l0.466,0.042l0.124,0.447c5.378,19.35,11.526,42.82,17.473,65.515c3.551,13.553,6.905,26.354,9.972,37.814
		c1.873,7.001,3.73,13.418,5.526,19.624c5.259,18.177,9.802,33.877,12.099,54.917l0.07,0.644l-0.649,0.089
		c-7.504,1.019-45.971,5.252-59.241,4.967c-9.208-0.202-19.904,0.53-30.159,1.235c-3.98,0.272-7.823,0.537-11.37,0.729
		c-6.332,0.335-12.637,1.074-18.735,1.789C599.173,840.993,590.681,841.989,582.113,841.989z M575.861,840.467
		c2.018,0.124,4.118,0.188,6.252,0.188c8.489,0,16.941-0.992,25.114-1.95c6.119-0.717,12.446-1.46,18.821-1.796
		c3.54-0.192,7.377-0.455,11.35-0.729c10.285-0.706,21.027-1.443,30.283-1.238c12.854,0.265,49.553-3.719,58.376-4.868
		c-2.308-20.604-6.795-36.116-11.984-54.048c-1.797-6.212-3.656-12.636-5.532-19.649c-3.068-11.463-6.422-24.266-9.973-37.821
		c-5.899-22.516-11.998-45.794-17.343-65.049c-1.038-0.08-2.085-0.119-3.184-0.119c-3.982,0-7.73,0.513-11.699,1.057
		c-3.941,0.538-8.016,1.096-12.308,1.096l-3.673-0.017c-1.799-0.009-3.596-0.02-5.387-0.02c-6.522,0-13.483,0.121-20.193,0.998
		c-25.862,3.327-81.538,4.689-88.748,4.854c3.771,24.158,7.28,42.109,12.462,63.791c1.37,5.69,2.82,12.55,4.355,19.813
		c3.025,14.309,6.453,30.528,10.183,41.874c3.219,9.738,5.054,19.07,6.827,28.093C571.474,823.15,573.144,831.644,575.861,840.467z"
		/>
</g>
<g>
	<path fill="#FFE7E5" d="M641.005,651.897c8.546-3.133,17.903-4.961,27.225-6.98c9.146-1.986,16.48-6.543,25.733-7.701
		c14.517,28.344,33.266,66.897,47.456,95.246c12.652,25.278,23.354,42.18,32.159,69.069c-6.386,2.38-41.895,14.59-54.486,17.064
		c-12.151,2.38-27.028,7.266-38.632,10.511c-15.92,4.431-30.352,11.474-46.898,13.929c-9.414-17.093-13.791-33.14-23.519-50.122
		c-8.854-15.516-19.196-41.5-26.625-57.293c-10-21.351-17.204-38.789-25.38-60.488C558.037,675.132,615.629,661.143,641.005,651.897
		z"/>
</g>
<g>
	<path fill="#0D10CA" d="M633.194,843.765l-0.226-0.411c-4.546-8.255-7.968-16.375-11.277-24.229
		c-3.544-8.411-7.209-17.107-12.237-25.884c-5.919-10.372-12.557-25.536-18.414-38.917c-2.963-6.769-5.762-13.162-8.236-18.422
		c-9.41-20.093-16.769-37.632-25.401-60.537l-0.264-0.702l0.736-0.179c0.576-0.139,57.846-14.085,82.896-23.213
		c7.581-2.78,15.935-4.568,24.014-6.297l3.3-0.709c3.986-0.865,7.689-2.249,11.271-3.589c4.558-1.703,9.27-3.464,14.521-4.122
		l0.473-0.059l0.215,0.42c9.107,17.782,19.804,39.426,30.148,60.357c6.183,12.511,12.023,24.328,17.311,34.894
		c3.228,6.45,6.318,12.332,9.305,18.021c8.755,16.668,16.317,31.063,22.891,51.139l0.198,0.606l-0.602,0.224
		c-7.156,2.666-42.088,14.636-54.593,17.094c-8.677,1.699-18.97,4.746-28.052,7.435c-3.681,1.091-7.236,2.143-10.528,3.064
		c-5.874,1.634-11.639,3.659-17.214,5.617c-9.481,3.331-19.285,6.774-29.768,8.329L633.194,843.765z M558.934,675.6
		c8.611,22.814,15.674,39.624,25.096,59.741c2.482,5.275,5.284,11.677,8.251,18.455c5.843,13.349,12.467,28.48,18.35,38.79
		c5.068,8.845,8.748,17.58,12.308,26.028c3.241,7.69,6.59,15.64,10.991,23.691c10.18-1.568,19.769-4.937,29.047-8.195
		c5.596-1.967,11.383-3.998,17.3-5.646c3.285-0.919,6.834-1.969,10.508-3.056c9.11-2.698,19.437-5.755,28.176-7.466
		c12.112-2.381,45.47-13.77,53.776-16.811c-6.494-19.656-13.967-33.882-22.606-50.33c-2.991-5.694-6.084-11.583-9.317-18.043
		c-5.289-10.569-11.131-22.387-17.314-34.9c-10.26-20.76-20.866-42.223-29.924-59.917c-4.895,0.678-9.196,2.286-13.741,3.984
		c-3.627,1.355-7.377,2.758-11.46,3.644l-3.303,0.71c-8.033,1.719-16.34,3.497-23.832,6.244
		C617.669,661.11,565.736,673.933,558.934,675.6z"/>
</g>
<g>
	<path fill="#FFE7E5" d="M626.394,638.919c8.911-2.439,18.536-3.513,28.141-4.781c9.424-1.249,17.227-5.203,26.689-5.618
		c12.34,29.388,28.116,69.28,40.124,98.647c10.707,26.185,20.136,43.872,26.814,71.356c-6.663,1.862-43.623,11.19-56.575,12.651
		c-12.499,1.401-27.964,5.082-39.981,7.388c-16.484,3.143-31.68,9.007-48.633,10.133c-8.11-17.775-11.207-34.107-19.643-51.796
		c-7.674-16.159-15.983-42.864-22.191-59.185c-8.349-22.063-14.192-40.005-20.665-62.269
		C540.474,655.445,599.937,646.105,626.394,638.919z"/>
</g>
<g>
	<path fill="#FFC435" d="M453.151,609.225c-6.776-5.341-66.264-58.266-87.363-80.763c-9.086-9.688-1.531-17.802,24.739-34.653
		c27.676-17.754,32.797-19.241,45.787-6.056c15.38,15.612,73.361,66.545,80.542,74.514c7.72,8.569-13.46,23.961-24.229,31.659
		C481.76,601.693,463.667,617.513,453.151,609.225z"/>
</g>
<g>
	<path fill="#CCEEFB" d="M447.81,593.998c-5.401-4.126-52.566-45.229-69.255-62.706c-7.843-8.213-0.851-14.145,20.672-27.952
		c22.675-14.545,28.134-14.712,37.82-5.899c12.799,11.645,54.765,50.976,62.295,57.742c6.458,5.802-13.111,19.487-21.951,25.775
		C468.47,587.304,454.84,599.368,447.81,593.998z"/>
	<path fill="#0D10CA" d="M452.024,595.673c-1.707,0-3.194-0.476-4.42-1.413c-5.724-4.372-52.882-45.553-69.294-62.739
		c-2.445-2.561-3.45-4.865-3.161-7.248c0.663-5.461,7.907-10.957,23.894-21.212c13.71-8.795,20.52-11.912,26.026-11.912
		c4.63,0,8.103,2.314,12.207,6.047c6.566,5.975,20.581,19.024,34.134,31.641c12.596,11.729,24.494,22.806,28.16,26.101
		c0.995,0.894,1.461,2.01,1.385,3.317c-0.385,6.64-14.96,17-22.791,22.566l-0.575,0.409c-1.33,0.945-2.758,2.013-4.27,3.145
		C466.589,589.409,458.216,595.673,452.024,595.673z M425.069,491.816c-5.29,0-12.244,3.199-25.658,11.804
		c-15.484,9.934-22.964,15.57-23.591,20.733c-0.264,2.172,0.684,4.305,2.981,6.71c16.396,17.17,63.5,58.303,69.217,62.672
		c1.12,0.855,2.432,1.272,4.007,1.272c5.965,0,14.238-6.19,20.886-11.163c1.515-1.134,2.947-2.204,4.283-3.155l0.575-0.408
		c7.74-5.502,22.146-15.742,22.512-22.065c0.065-1.11-0.317-2.021-1.166-2.785c-3.67-3.297-15.57-14.377-28.168-26.107
		c-13.552-12.618-27.565-25.665-34.128-31.636C432.834,494.062,429.479,491.816,425.069,491.816z"/>
</g>
<g>
	<path fill="#0D10CA" d="M486.759,591.068c-1.605,0-3.082-0.512-4.158-1.441c-1.083-0.936-1.671-2.213-1.654-3.596
		c0.02-1.58,0.835-3.145,2.236-4.295c1.344-1.103,3.129-1.736,4.898-1.736c1.605,0,3.082,0.512,4.158,1.441
		c1.083,0.936,1.671,2.213,1.654,3.597c-0.02,1.578-0.835,3.145-2.236,4.295C490.311,590.436,488.527,591.068,486.759,591.068z
		 M488.081,581.334c-1.458,0-2.928,0.52-4.033,1.428c-1.097,0.901-1.734,2.097-1.749,3.285c-0.013,0.985,0.411,1.9,1.192,2.575
		c1.776,1.533,5.227,1.384,7.302-0.317c1.096-0.901,1.733-2.098,1.749-3.285c0.013-0.987-0.411-1.901-1.192-2.576
		C490.52,581.729,489.359,581.334,488.081,581.334z"/>
</g>
<g>
	<path fill="#0D10CA" d="M390.15,503.302c-0.659,0-1.038-0.277-1.24-0.51c-0.331-0.38-0.35-0.764-0.309-1.02
		c0.158-0.98,1.446-1.75,3.58-3.027l1.776-1.076c2.036-1.249,3.644-2.235,4.778-2.235c0.588,0,0.936,0.259,1.124,0.476
		c0.265,0.305,0.373,0.672,0.311,1.061c-0.172,1.078-1.623,2.137-4.419,3.831C393.204,502.346,391.379,503.302,390.15,503.302z
		 M398.836,496.762c-0.85,0.008-2.536,1.042-4.166,2.042l-1.789,1.084c-1.265,0.757-2.84,1.699-2.946,2.099
		c0.02-0.041,0.096-0.02,0.215-0.02c1.095,0,3.662-1.555,4.894-2.302C397.536,498.155,398.812,497.178,398.836,496.762z"/>
</g>
<g>
	<path fill="#0D10CA" d="M426.809,520.62c0,0,0.123,0.469,0.306,1.294c0.169,0.827,0.45,2.003,0.717,3.424
		c0.554,2.839,1.178,6.64,1.695,10.455c0.346,3.844,0.571,7.702,0.657,10.598c0.053,1.447,0.036,2.656,0.053,3.5
		c0.003,0.845-0.014,1.328-0.014,1.328s-0.102-0.475-0.248-1.308c-0.132-0.834-0.361-2.021-0.564-3.45
		c-0.428-2.856-0.871-6.667-1.223-10.491c-0.507-3.816-0.907-7.647-1.122-10.531c-0.117-1.441-0.156-2.649-0.211-3.492
		C426.814,521.105,426.809,520.62,426.809,520.62z"/>
</g>
<g>
	<path fill="#0D10CA" d="M436.242,517.626c0,0,0.142,0.72,0.392,1.981c0.221,1.264,0.59,3.063,0.936,5.235
		c0.345,2.172,0.79,4.701,1.189,7.42c0.414,2.718,0.805,5.623,1.2,8.528c0.367,2.907,0.739,5.813,1.039,8.545
		c0.317,2.729,0.536,5.289,0.763,7.477c0.226,2.188,0.332,4.026,0.445,5.306c0.084,1.285,0.132,2.019,0.132,2.019
		s-0.142-0.719-0.392-1.978c-0.221-1.263-0.591-3.06-0.936-5.232c-0.344-2.172-0.792-4.7-1.189-7.421
		c-0.414-2.719-0.804-5.627-1.199-8.534c-0.367-2.909-0.738-5.817-1.038-8.55c-0.315-2.731-0.537-5.29-0.764-7.478
		c-0.225-2.188-0.332-4.023-0.445-5.302C436.291,518.359,436.242,517.626,436.242,517.626z"/>
</g>
<g>
	<path fill="#0D10CA" d="M632.806,672.175c0,0-0.716,0.197-1.969,0.541c-1.259,0.316-3.047,0.821-5.212,1.332
		c-2.166,0.51-4.683,1.146-7.398,1.753c-2.711,0.621-5.614,1.234-8.516,1.85c-2.906,0.589-5.81,1.183-8.545,1.693
		c-2.73,0.526-5.297,0.943-7.489,1.338c-2.192,0.394-4.038,0.642-5.322,0.854c-1.291,0.183-2.028,0.288-2.028,0.288
		s0.715-0.197,1.966-0.541c1.258-0.316,3.043-0.822,5.208-1.332c2.166-0.509,4.683-1.148,7.399-1.753
		c2.712-0.621,5.617-1.233,8.521-1.85c2.908-0.589,5.815-1.182,8.551-1.693c2.732-0.524,5.298-0.943,7.49-1.338
		c2.192-0.393,4.036-0.643,5.318-0.854C632.069,672.28,632.806,672.175,632.806,672.175z"/>
</g>
<g>
	<path fill="#0D10CA" d="M614.908,703.356c0,0-0.367,0.147-1.018,0.372c-0.654,0.212-1.578,0.553-2.704,0.895
		c-0.563,0.169-1.174,0.352-1.819,0.546c-0.644,0.196-1.346,0.337-2.066,0.497c-1.44,0.325-2.989,0.623-4.537,0.925
		c-1.539,0.272-3.077,0.549-4.53,0.76c-0.721,0.127-1.435,0.188-2.09,0.319c-0.661,0.113-1.286,0.221-1.862,0.32
		c-1.156,0.195-2.137,0.301-2.818,0.402c-0.685,0.088-1.082,0.121-1.082,0.121s0.365-0.146,1.015-0.372
		c0.653-0.212,1.578-0.555,2.71-0.898c0.567-0.17,1.181-0.354,1.831-0.549c0.651-0.199,1.347-0.337,2.066-0.497
		c1.437-0.325,2.98-0.62,4.522-0.92c1.533-0.27,3.066-0.544,4.515-0.756c0.721-0.127,1.428-0.185,2.09-0.318
		c0.665-0.114,1.294-0.223,1.874-0.323c1.162-0.196,2.143-0.303,2.824-0.405C614.513,703.389,614.908,703.356,614.908,703.356z"/>
</g>
<g>
	<path fill="#0D10CA" d="M671.249,690.458c0,0-0.747,0.203-2.053,0.558c-1.313,0.327-3.176,0.848-5.434,1.378
		c-2.258,0.528-4.882,1.187-7.711,1.817c-2.826,0.644-5.851,1.282-8.875,1.924c-3.028,0.614-6.055,1.233-8.904,1.766
		c-2.845,0.55-5.518,0.988-7.802,1.402c-2.283,0.413-4.206,0.677-5.543,0.899c-1.344,0.195-2.112,0.306-2.112,0.306
		s0.746-0.203,2.05-0.558c1.312-0.327,3.173-0.849,5.43-1.378c2.257-0.528,4.881-1.189,7.712-1.817
		c2.827-0.645,5.854-1.282,8.88-1.924c3.03-0.614,6.059-1.232,8.909-1.766c2.847-0.548,5.52-0.989,7.803-1.402
		c2.283-0.412,4.203-0.677,5.539-0.899C670.483,690.569,671.249,690.458,671.249,690.458z"/>
</g>
<g>
	<path fill="#0D10CA" d="M657.735,711.809c0,0-0.747,0.203-2.053,0.558c-1.313,0.327-3.176,0.848-5.434,1.378
		c-2.258,0.528-4.882,1.187-7.711,1.817c-2.826,0.644-5.851,1.282-8.875,1.924c-3.028,0.614-6.055,1.233-8.904,1.766
		c-2.845,0.55-5.519,0.988-7.802,1.402c-2.283,0.413-4.206,0.677-5.543,0.899c-1.344,0.195-2.112,0.306-2.112,0.306
		s0.746-0.203,2.05-0.558c1.312-0.327,3.173-0.849,5.43-1.378c2.257-0.528,4.881-1.189,7.712-1.817
		c2.827-0.645,5.854-1.282,8.88-1.924c3.03-0.614,6.059-1.232,8.91-1.766c2.847-0.548,5.52-0.989,7.803-1.402
		c2.283-0.412,4.203-0.677,5.539-0.899C656.969,711.92,657.735,711.809,657.735,711.809z"/>
</g>
<g>
	<path fill="#0D10CA" d="M652.33,735.83c0,0-0.747,0.203-2.053,0.558c-1.313,0.327-3.176,0.848-5.434,1.378
		c-2.258,0.528-4.882,1.187-7.711,1.817c-2.826,0.644-5.851,1.282-8.875,1.924c-3.028,0.614-6.055,1.233-8.904,1.766
		c-2.845,0.55-5.519,0.988-7.802,1.402c-2.283,0.413-4.206,0.677-5.543,0.899c-1.344,0.195-2.112,0.306-2.112,0.306
		s0.746-0.203,2.05-0.558c1.312-0.327,3.173-0.849,5.43-1.378c2.257-0.528,4.881-1.189,7.712-1.817
		c2.827-0.644,5.854-1.282,8.88-1.924c3.03-0.614,6.059-1.232,8.909-1.766c2.847-0.548,5.52-0.989,7.803-1.402
		c2.283-0.412,4.203-0.677,5.539-0.899C651.563,735.941,652.33,735.83,652.33,735.83z"/>
</g>
<g>
	<path fill="#0D10CA" d="M688.273,704.106c0,0-0.31,0.135-0.859,0.34c-0.553,0.192-1.334,0.503-2.287,0.81
		c-0.476,0.157-0.991,0.327-1.541,0.489c-0.545,0.176-1.144,0.296-1.757,0.434c-1.227,0.282-2.548,0.533-3.869,0.788
		c-1.309,0.225-2.618,0.455-3.855,0.622c-0.613,0.105-1.223,0.144-1.779,0.255c-0.558,0.105-1.091,0.188-1.584,0.263
		c-0.983,0.16-1.822,0.236-2.403,0.317c-0.585,0.068-0.926,0.089-0.926,0.089s0.307-0.135,0.856-0.339
		c0.552-0.192,1.334-0.505,2.294-0.813c0.479-0.159,1-0.329,1.555-0.492c0.553-0.179,1.145-0.296,1.757-0.434
		c1.223-0.281,2.537-0.529,3.851-0.783c1.303-0.223,2.604-0.45,3.837-0.617c0.613-0.105,1.215-0.141,1.779-0.255
		c0.564-0.106,1.101-0.189,1.597-0.266c0.99-0.161,1.83-0.239,2.41-0.32C687.935,704.127,688.273,704.106,688.273,704.106z"/>
</g>
<g>
	<path fill="#0D10CA" d="M446.402,533.537c0,0,0.417,1.132,0.865,2.858c0.459,1.724,0.958,4.042,1.351,6.376
		c0.383,2.336,0.661,4.689,0.782,6.468c0.132,1.777,0.101,2.981,0.101,2.981s-0.418-1.131-0.867-2.857
		c-0.46-1.724-0.957-4.042-1.349-6.376c-0.383-2.336-0.658-4.69-0.78-6.468C446.373,534.741,446.402,533.537,446.402,533.537z"/>
</g>
<g>
	<path fill="#0D10CA" d="M840.093,617.197c-0.637,0-1.296-0.044-1.98-0.136c-7.632-1.02-17.626-5.596-23.681-9.413
		c-11.384-7.179-23.024-14.139-34.594-20.683c-25.315-14.315-49.098-27.313-72.097-39.884
		c-40.028-21.878-77.837-42.543-119.362-67.691c-2.556-1.548-5.124-3.077-7.692-4.606c-8.506-5.065-17.301-10.303-25.52-16.181
		c-0.54-0.386-1.247-0.825-2.034-1.315c-3.697-2.299-9.284-5.775-8.405-10.402c0.209-1.103,0.181-1.613,0.152-2.154
		c-0.07-1.293-0.137-2.516,2.324-9.743l1.281,0.425c-2.379,6.987-2.316,8.136-2.256,9.248c0.032,0.595,0.066,1.211-0.173,2.471
		c-0.709,3.735,4.41,6.919,7.797,9.026c0.816,0.508,1.547,0.963,2.108,1.364c8.172,5.845,16.943,11.068,25.425,16.118
		c2.571,1.531,5.142,3.062,7.7,4.611c41.5,25.132,79.295,45.79,119.31,67.661c23.003,12.573,46.79,25.574,72.113,39.894
		c11.59,6.555,23.248,13.525,34.652,20.715c5.934,3.743,15.705,8.223,23.135,9.218c8.977,1.196,13.509-6.583,19.24-16.437
		c1.72-2.956,3.497-6.012,5.532-9.057c19.822-29.668,38.547-57.691,57.44-88.401c2.845-4.624,7.245-11.459,11.903-18.697
		c9.774-15.185,21.926-34.066,24.833-40.557c0.581-5.22,0.442-10.162-0.3-10.604l0.497-1.241c2.085,0.801,1.605,7.921,1.134,12.094
		l-0.053,0.193c-2.873,6.496-14.613,24.736-24.972,40.83c-4.653,7.232-9.049,14.062-11.887,18.674
		c-18.908,30.731-37.637,58.765-57.469,88.443c-2.011,3.012-3.778,6.049-5.487,8.987
		C853.358,609.167,848.686,617.197,840.093,617.197z"/>
</g>
<g>
	<path fill="#0D10CA" d="M838.276,604.431C838.276,604.431,838.277,604.431,838.276,604.431c-0.657,0-1.342-0.047-2.034-0.139
		c-7.532-1.009-17.411-5.389-23.401-9.033c-11.289-6.864-22.81-13.509-34.244-19.752l-0.362-0.198
		c-69.216-37.795-123.886-67.646-188.778-105.525c-2.532-1.478-5.075-2.938-7.619-4.398c-8.432-4.841-17.152-9.847-25.307-15.455
		c-0.435-0.299-0.951-0.63-1.515-0.992c-3.428-2.2-8.609-5.526-8.894-10.03c-0.42-6.629,9.732-17.952,16.45-25.445
		c1.656-1.847,3.086-3.442,3.967-4.545c21.838-27.35,86.611-101.746,92.71-107.676l0.327-0.318l0.42,0.183l298.097,129.921
		l-0.28,0.613c-2.967,6.486-17.312,28.286-28.839,45.803c-4.343,6.601-8.094,12.301-10.518,16.097l-1.708,2.674
		c-17.539,27.459-35.676,55.855-54.921,83.569c-1.966,2.833-3.693,5.694-5.362,8.459
		C851.225,596.93,846.697,604.431,838.276,604.431z M659.876,302.514c-7.744,7.871-70.791,80.324-92.276,107.23
		c-0.905,1.133-2.346,2.741-4.016,4.604c-6.17,6.882-16.498,18.401-16.113,24.477c0.243,3.834,5.08,6.94,8.281,8.995
		c0.578,0.371,1.106,0.71,1.551,1.017c8.11,5.577,16.805,10.569,25.213,15.396c2.546,1.462,5.093,2.924,7.627,4.404
		c64.876,37.869,119.539,67.716,188.744,105.506l0.363,0.198c11.451,6.253,22.991,12.908,34.297,19.783
		c5.874,3.572,15.539,7.865,22.876,8.848c0.631,0.085,1.254,0.126,1.852,0.126c7.654,0.001,11.792-6.855,17.028-15.536
		c1.68-2.784,3.418-5.662,5.41-8.531c19.23-27.693,37.359-56.077,54.892-83.527l1.708-2.673c2.43-3.803,6.183-9.508,10.529-16.112
		c10.572-16.067,24.936-37.897,28.448-45.016L659.876,302.514z"/>
</g>
<g>
	<path fill="#0D10CA" d="M959.345,435.86l-0.957-0.943c0.029-0.029,2.873-2.885,2.984-6.029c0.321-9.007,0.921-19.391,1.557-30.384
		c0.744-12.888,1.515-26.215,1.993-39.704c0.395-11.118,0.549-22.394,0.698-33.298c0.172-12.546,0.35-25.519,0.893-38.208
		c0.531-12.303-1.064-58.636-2.703-61.08c-1.479-1.529-28.077-10.78-51.545-18.942c-17.63-6.132-35.861-12.472-44.525-15.905
		c-14.305-5.668-27.763-10.39-40.78-14.957c-11.244-3.945-21.865-7.671-32.799-11.9c-8.47-3.275-19.904-7.595-32.01-12.169
		c-17.869-6.751-36.345-13.732-48.428-18.531c-15.443-6.134-51.362-20.401-54.622-18.747c-0.699,7.385-0.405,15.261-0.093,23.592
		c0.189,5.061,0.385,10.295,0.389,15.874c0.013,18.185,0.41,34.551,1.287,53.066c0.978,20.636,1.676,36.485,1.742,52.565
		c0.007,1.574,0.001,3.674-0.006,6.098c-0.03,10.879-0.092,33.516,1.276,35.421l-1.102,0.772
		c-1.353-1.884-1.584-14.698-1.526-36.196c0.007-2.42,0.013-4.517,0.006-6.089c-0.066-16.052-0.763-31.888-1.741-52.507
		c-0.879-18.536-1.276-34.921-1.289-53.127c-0.004-5.556-0.199-10.776-0.388-15.826c-0.317-8.477-0.618-16.484,0.123-24.035
		l0.017-0.175l0.102-0.143c1.487-2.103,10.91,0.182,56.327,18.221c12.072,4.795,30.543,11.774,48.406,18.523
		c12.107,4.576,23.545,8.896,32.021,12.173c10.913,4.22,21.525,7.943,32.758,11.885c13.028,4.571,26.5,9.298,40.831,14.976
		c8.635,3.422,26.853,9.757,44.47,15.885c34.726,12.078,51.199,17.935,52.223,19.464c2.109,3.147,3.389,51.126,2.927,61.873
		c-0.544,12.671-0.722,25.634-0.893,38.17c-0.149,10.912-0.304,22.195-0.698,33.328c-0.479,13.503-1.25,26.838-1.995,39.733
		c-0.635,10.986-1.235,21.364-1.555,30.355C962.593,432.609,959.478,435.729,959.345,435.86z"/>
</g>
<g>
	<path fill="#0D10CA" d="M953.116,424.221l-286.89-125.541l0.021-0.455c0.29-6.312-0.096-38.3-0.379-61.656
		c-0.082-6.844-0.156-12.917-0.2-17.335c-0.067-6.749-0.44-14.518-0.835-22.744c-0.459-9.576-0.934-19.478-1.001-29.082
		c-0.057-8.202-0.338-14.922-0.585-20.851c-0.35-8.37-0.626-14.98-0.046-21.217l0.064-0.686l0.693,0.085
		c5.487,0.677,19.02,5.892,39.503,13.786c4.888,1.884,10.17,3.919,15.825,6.079c7.875,3.008,18.68,7.239,30.119,11.719
		c16.567,6.488,33.698,13.196,45.214,17.484c7.544,2.808,16.027,5.928,25.031,9.238c17.559,6.457,37.463,13.774,56.025,20.863
		c7.322,2.796,20.158,7.294,33.747,12.056c28.984,10.157,46.66,16.432,47.729,17.935c2.032,2.856,2.628,49.271,2.299,57.824
		c-0.43,11.153-0.507,22.693-0.582,33.852c-0.066,9.736-0.133,19.803-0.433,29.626c-0.648,21.186-2.885,50.477-5.204,68.133
		L953.116,424.221z M667.615,297.829l284.391,124.447c2.274-17.7,4.444-46.318,5.078-67.115c0.3-9.807,0.367-19.866,0.433-29.594
		c0.075-11.171,0.152-22.721,0.582-33.895c0.389-10.127-0.443-54.562-2.055-57.007c-1.424-1.447-26.735-10.316-47.073-17.444
		c-13.599-4.765-26.443-9.267-33.784-12.069c-18.554-7.086-38.453-14.402-56.009-20.857c-9.005-3.311-17.49-6.431-25.037-9.24
		c-11.527-4.291-28.662-11.002-45.234-17.492c-11.437-4.479-22.239-8.709-30.11-11.715c-5.655-2.16-10.938-4.196-15.828-6.08
		c-19.554-7.536-32.744-12.619-38.485-13.602c-0.49,5.947-0.223,12.332,0.112,20.335c0.248,5.94,0.529,12.672,0.587,20.897
		c0.066,9.577,0.541,19.465,1,29.028c0.395,8.238,0.769,16.02,0.836,22.795c0.044,4.417,0.117,10.49,0.2,17.332
		C667.495,259.411,667.871,290.529,667.615,297.829z"/>
</g>
<g>
	<path fill="#0D10CA" d="M694.401,317.403c-3.291,4.031-4.821,6.424,1.801,9.158c3.318,1.37,48.102,22.133,99.852,45.304
		c52.402,23.462,109.438,48.939,112.94,50.389c7.017,2.905,9.078-1.369,10.604-5.812"/>
	<path fill="#0D10CA" d="M913.066,423.874c-1.278,0-2.713-0.334-4.334-1.005c-3.478-1.439-59.457-26.442-112.956-50.396
		c-33.578-15.034-64.21-29.049-82.512-37.422c-9.736-4.454-16.169-7.397-17.322-7.873c-3.025-1.25-4.548-2.484-4.938-4.003
		c-0.484-1.887,0.884-3.756,2.871-6.19l1.052,0.838c-1.682,2.061-2.943,3.74-2.613,5.025c0.267,1.043,1.625,2.056,4.149,3.099
		c1.177,0.486,7.272,3.274,17.37,7.894c18.299,8.372,48.929,22.385,82.5,37.417c53.491,23.951,109.456,48.947,112.921,50.382
		c2.407,0.995,4.284,1.164,5.743,0.514c2.096-0.932,3.142-3.547,3.959-5.926l1.28,0.429c-0.908,2.644-2.093,5.561-4.684,6.714
		C914.799,423.705,913.973,423.874,913.066,423.874z"/>
</g>
<g>
	<path fill="#0D10CA" d="M802.577,172.312c-0.148,0.982-1.044,1.68-2.001,1.558c-0.957-0.121-1.612-1.015-1.464-1.996
		c0.148-0.981,1.043-1.679,2-1.558C802.069,170.437,802.725,171.33,802.577,172.312z"/>
</g>
<g>
	<path fill="#0D10CA" d="M865.675,535.963c-0.001,0-0.001,0-0.001,0c-4.816-0.001-10.48-3.409-15.03-6.149
		c-1.685-1.015-3.277-1.973-4.585-2.61c-7.632-3.719-83.283-41.43-98.85-50.004c-9.315-5.129-18.83-9.673-28.032-14.068
		c-8.57-4.093-17.434-8.325-26.084-13.009c-18.641-10.093-37.346-19.744-55.594-28.682l-3.521-1.722
		c-17.605-8.608-35.809-17.509-41.04-22.941c-4.166-4.327,2.731-12.25,6.438-16.507c2.281-2.62,5.283-5.841,8.46-9.251
		c6.479-6.952,13.821-14.831,17.878-20.619c4.59-6.549,9.904-12.601,15.043-18.453c0.936-1.065,1.873-2.132,2.808-3.205
		c0.615-0.705,1.423-1.756,2.36-2.974c3.724-4.84,9.351-12.155,13.876-12.155c0.519,0,1.016,0.094,1.48,0.279
		c4.439,1.772,18.189,8.561,18.772,8.849c8.045,4.802,16.078,8.364,24.583,12.136c1.852,0.821,3.716,1.649,5.596,2.495
		c5.992,2.698,12.127,5.596,18.059,8.398c7.028,3.319,14.293,6.751,21.439,9.909c16.337,7.222,32.348,14.464,47.586,21.523
		c8.401,3.891,16.502,7.536,24.334,11.06c18.243,8.208,35.474,15.96,56.176,26.572c8.275,4.242,20.291,9.119,30.892,13.422
		c18.105,7.349,25.526,10.547,26.003,12.611c0.28,1.21-4.135,7.809-23.615,35.304c-7.987,11.272-15.531,21.918-18.404,26.494
		l-1.449,2.311c-6.778,10.818-17.022,27.168-21.216,29.802C868.783,535.564,867.316,535.963,865.675,535.963z M659.797,314.949
		c-3.855,0-9.455,7.279-12.8,11.628c-0.95,1.235-1.77,2.301-2.412,3.037c-0.936,1.074-1.874,2.142-2.811,3.208
		c-5.115,5.825-10.404,11.849-14.953,18.338c-4.11,5.864-11.486,13.78-17.995,20.763c-3.169,3.401-6.164,6.614-8.43,9.218
		c-3.184,3.656-9.808,11.264-6.483,14.716c5.066,5.261,23.977,14.507,40.661,22.665l3.522,1.723
		c18.265,8.946,36.986,18.604,55.643,28.707c8.622,4.668,17.468,8.892,26.024,12.978c9.22,4.403,18.753,8.955,28.101,14.104
		c15.552,8.565,91.163,46.255,98.792,49.973c1.361,0.663,2.977,1.637,4.689,2.666c4.407,2.653,9.89,5.953,14.327,5.954h0.001
		c1.4,0,2.588-0.319,3.633-0.976c3.933-2.47,14.487-19.314,20.792-29.378l1.45-2.312c2.893-4.606,10.447-15.268,18.445-26.555
		c10.159-14.339,22.772-32.14,23.378-34.308c-0.841-1.732-13.758-6.975-25.171-11.607c-10.628-4.314-22.673-9.203-31.002-13.472
		c-20.671-10.596-37.885-18.342-56.112-26.543c-7.837-3.525-15.94-7.172-24.348-11.066c-15.232-7.056-31.234-14.293-47.564-21.512
		c-7.162-3.166-14.435-6.601-21.471-9.923c-5.927-2.8-12.056-5.694-18.035-8.387c-1.878-0.846-3.741-1.672-5.59-2.492
		c-8.543-3.789-16.613-7.368-24.681-12.186c-0.095-0.044-14.238-7.028-18.627-8.78C660.469,315.009,660.141,314.949,659.797,314.949
		z"/>
</g>
<g>
	<path fill="#0D10CA" d="M723.801,535.513c-6.311,0-17.03-6.331-26.488-11.918c-3.056-1.805-5.942-3.51-8.386-4.818
		c-3.642-1.951-7.441-3.757-11.114-5.503c-6.031-2.868-12.268-5.833-17.99-9.522c-13.926-8.977-19.023-15.09-16.528-19.821
		c1.7-3.223,4.242-6.772,6.485-9.903l1.158-1.622c2.237-3.152,4.356-6.461,6.406-9.662c1.061-1.657,2.123-3.315,3.205-4.96
		c0.415-0.631,0.824-1.263,1.229-1.89c3.706-5.734,7.208-11.15,12.77-11.15c1.415,0,2.927,0.364,4.494,1.083
		c2.426,1.114,6.174,3.379,9.48,5.378c2.03,1.227,3.948,2.387,5.353,3.157c4.505,2.47,9.025,4.572,13.397,6.606
		c4.684,2.179,9.526,4.432,14.341,7.134c1.56,0.875,3.125,1.808,4.701,2.747c3.946,2.35,8.027,4.781,12.214,6.392
		c4.149,1.596,10.04,5.82,12.865,9.225c3.937,4.743-0.174,11.085-3.177,15.715c-0.705,1.088-1.37,2.114-1.871,3.018
		c-4.078,7.348-12.64,21.603-18.252,28.567C727.16,534.925,725.714,535.513,723.801,535.513z M674.549,446.079
		c-4.822,0-8.13,5.116-11.631,10.534c-0.407,0.629-0.818,1.265-1.235,1.899c-1.08,1.641-2.138,3.293-3.196,4.946
		c-2.058,3.214-4.186,6.536-6.441,9.715l-1.162,1.626c-2.218,3.096-4.733,6.605-6.39,9.749c-1.306,2.476-1.061,7.045,16.069,18.087
		c5.648,3.641,11.845,6.587,17.838,9.437c3.688,1.753,7.501,3.568,11.172,5.533c2.469,1.321,5.367,3.034,8.436,4.847
		c8.846,5.225,19.857,11.728,25.794,11.728c1.502,0,2.56-0.407,3.235-1.245c5.56-6.899,14.068-21.067,18.125-28.377
		c0.524-0.943,1.201-1.989,1.919-3.096c2.932-4.525,6.583-10.157,3.269-14.15c-2.703-3.258-8.339-7.301-12.31-8.827
		c-4.296-1.652-8.426-4.113-12.421-6.493c-1.565-0.932-3.12-1.859-4.671-2.729c-4.771-2.677-9.589-4.918-14.25-7.086
		c-4.391-2.043-8.933-4.155-13.476-6.647c-1.43-0.784-3.359-1.95-5.402-3.186c-3.276-1.98-6.989-4.224-9.345-5.305
		C677.086,446.401,675.765,446.079,674.549,446.079z"/>
</g>
<g>
	<path fill="#0D10CA" d="M988.202,639.936c-24.638,0-44.682-11.618-44.682-25.899c0-14.282,20.044-25.9,44.682-25.9
		s44.682,11.618,44.682,25.9C1032.885,628.318,1012.84,639.936,988.202,639.936z M988.202,589.471
		c-23.892,0-43.331,11.02-43.331,24.566c0,13.544,19.438,24.564,43.331,24.564s43.331-11.02,43.331-24.564
		C1031.533,600.491,1012.095,589.471,988.202,589.471z"/>
</g>
<g>
	<path fill="#0D10CA" d="M988.202,634.329c-21.942,0-39.793-9.103-39.793-20.292s17.851-20.292,39.793-20.292
		s39.792,9.103,39.792,20.292S1010.144,634.329,988.202,634.329z M988.202,595.079c-21.196,0-38.441,8.505-38.441,18.958
		c0,10.453,17.245,18.958,38.441,18.958c21.196,0,38.441-8.505,38.441-18.958C1026.644,603.584,1009.399,595.079,988.202,595.079z"
		/>
</g>
<g>
	<path fill="#0D10CA" d="M1027.404,662.345l-0.327-1.295c9.557-2.359,14.654-10.828,16.527-27.461
		c0.864-7.682-0.94-14.402-4.709-17.536c-1.891-1.572-4.139-2.05-6.498-1.374l-0.375-1.282c2.814-0.803,5.49-0.238,7.744,1.636
		c4.108,3.417,6.094,10.585,5.181,18.705C1043.002,651.007,1037.592,659.829,1027.404,662.345z"/>
</g>
<g>
	<path fill="#0D10CA" d="M1025.99,670.754l-0.34-1.293c18.031-4.616,23.041-17.876,25.281-37.776
		c1.146-10.181-3.524-18.031-8.276-21.984c-3.964-3.297-8.477-4.55-12.388-3.434l-0.375-1.282c4.349-1.242,9.317,0.104,13.633,3.696
		c5.02,4.174,9.953,12.45,8.75,23.153C1050.034,651.729,1044.708,665.961,1025.99,670.754z"/>
</g>
<g>
	<path fill="#0D10CA" d="M988.943,703.211c-12.836,0-23.59-5.428-29.009-14.738c-9.92-17.04-13.139-44.622-15.49-64.762
		c-0.218-1.867-0.428-3.669-0.635-5.39l1.341-0.156c0.208,1.721,0.418,3.525,0.636,5.394c2.337,20.024,5.538,47.449,15.319,64.25
		c5.427,9.323,16.515,14.552,29.669,14.03c13.366-0.546,24.932-7.06,29.467-16.595c6.289-13.226,10.57-60.305,11.293-71.249
		l1.349,0.086c-0.726,10.995-5.04,58.316-11.42,71.732c-4.746,9.98-16.77,16.794-30.632,17.36
		C990.196,703.198,989.567,703.211,988.943,703.211z"/>
</g>
<g>
	<path fill="#0D10CA" d="M960.999,626.984l-0.956-0.944c3.016-2.978,9.465-5.311,14.071-6.404c3.798-0.898,8.148-0.803,12.354-0.71
		c1.272,0.029,2.566,0.04,3.765,0.056c1.342,0,3.013-0.082,4.781-0.168c8.989-0.435,21.29-1.039,25.018,6.132l-1.201,0.61
		c-3.332-6.407-15.62-5.81-23.75-5.408c-1.795,0.087-3.459,0.143-4.868,0.169c-1.234,0-2.5-0.027-3.776-0.056
		c-4.124-0.094-8.382-0.186-12.007,0.674C969.644,622.07,963.636,624.381,960.999,626.984z"/>
</g>
<g>
	<path fill="#0D10CA" d="M602.551,829.393l-0.193-0.424c-3.916-8.583-6.706-16.946-9.403-25.031
		c-2.889-8.66-5.875-17.614-10.235-26.755c-5.129-10.801-10.588-26.433-15.405-40.226c-2.437-6.979-4.739-13.572-6.808-19.009
		c-7.957-21.029-13.756-38.501-20.682-62.32l-0.211-0.725l0.754-0.119c0.594-0.093,59.729-9.416,85.847-16.51
		c7.903-2.163,16.507-3.278,24.827-4.354l3.404-0.443c4.108-0.545,7.972-1.629,11.709-2.677c4.755-1.333,9.672-2.713,15.04-2.948
		l0.472-0.021l0.181,0.431c7.757,18.474,16.805,40.929,25.554,62.644c5.2,12.908,10.112,25.1,14.572,36.009
		c2.729,6.675,5.367,12.777,7.917,18.676c7.48,17.304,13.94,32.248,18.928,52.774l0.152,0.623l-0.626,0.175
		c-7.454,2.083-43.782,11.217-56.682,12.672c-8.924,1-19.597,3.214-29.013,5.167c-3.819,0.792-7.506,1.557-10.916,2.213
		c-6.084,1.16-12.089,2.717-17.897,4.224c-9.872,2.56-20.08,5.208-30.818,5.921L602.551,829.393z M541.334,655.985
		c6.823,23.414,12.576,40.718,20.438,61.496c2.075,5.453,4.38,12.053,6.82,19.043c4.805,13.761,10.252,29.356,15.35,40.093
		c4.395,9.214,7.394,18.207,10.296,26.904c2.642,7.92,5.373,16.105,9.16,24.477c10.44-0.749,20.43-3.34,30.097-5.847
		c5.829-1.512,11.857-3.074,17.983-4.243c3.403-0.653,7.084-1.417,10.894-2.208c9.446-1.959,20.152-4.181,29.138-5.188
		c12.273-1.384,47.382-10.147,55.841-12.457c-4.94-20.096-11.323-34.864-18.703-51.936c-2.552-5.906-5.192-12.013-7.928-18.7
		c-4.461-10.913-9.374-23.106-14.575-36.016c-8.679-21.542-17.65-43.81-25.363-62.192c-5.02,0.283-9.512,1.543-14.26,2.875
		c-3.782,1.061-7.694,2.158-11.898,2.715l-3.407,0.444c-8.275,1.071-16.831,2.179-24.643,4.318
		C601.994,646.238,548.335,654.871,541.334,655.985z"/>
</g>
<g>
	<path fill="#FF473E" d="M537.164,739.59c1.893-6.542,7.468-23.793,11.22-36.862c3.192-11.121,7.628-21.712,10.598-32.91
		c2.479-9.344,5.614-18.732,8.756-27.793c2.226-6.42,4.558-14.182,9.291-19.507c0.214,2.732-0.94,16.374-2.625,22.813
		c-3.549,13.562-9.673,33.838-13.013,43.467c-6.079,17.523-13.628,44.343-17.413,52.754L537.164,739.59z"/>
	<path fill="#0D10CA" d="M544.355,742.357l-8.025-2.312l0.184-0.639c0.764-2.639,2.134-7.046,3.721-12.149
		c2.343-7.534,5.259-16.911,7.499-24.712c1.473-5.129,3.235-10.222,4.939-15.147c1.995-5.764,4.057-11.724,5.655-17.75
		c2.523-9.511,5.706-19.001,8.77-27.841l0.659-1.92c2.065-6.051,4.405-12.907,8.763-17.811l1.058-1.19l0.123,1.58
		c0.206,2.634-0.924,16.456-2.645,23.032c-3.743,14.304-9.87,34.414-13.027,43.516c-2.544,7.332-5.33,16.246-8.024,24.865
		c-3.701,11.838-7.195,23.02-9.411,27.944L544.355,742.357z M538,739.135l5.595,1.612c2.193-5.099,5.561-15.876,9.12-27.261
		c2.698-8.629,5.486-17.553,8.036-24.904c3.15-9.078,9.263-29.143,12.998-43.417c1.439-5.502,2.461-16.131,2.61-20.768
		c-3.45,4.574-5.495,10.568-7.322,15.917l-0.661,1.926c-3.056,8.815-6.23,18.276-8.741,27.747
		c-1.611,6.073-3.681,12.056-5.684,17.842c-1.698,4.909-3.455,9.984-4.918,15.081c-2.243,7.814-5.161,17.198-7.507,24.739
		C540.064,732.353,538.786,736.465,538,739.135z"/>
</g>
<g>
	<path fill="#0D10CA" d="M546.249,736.193c-0.373,0-0.676-0.298-0.676-0.667c0-0.369,0.302-0.667,0.676-0.667
		c4.188,0,5.992-2.382,10.705-19.136c4.701-16.71,8.426-23.247,8.582-23.517c0.185-0.319,0.595-0.43,0.921-0.249
		c0.324,0.184,0.437,0.59,0.252,0.911c-0.038,0.065-3.807,6.696-8.453,23.212C553.55,732.809,551.53,736.193,546.249,736.193z"/>
</g>
<g>
	<path fill="#0D10CA" d="M559.262,693.671c-0.049,0-0.098-0.005-0.147-0.016l-6.388-1.402c-0.364-0.081-0.594-0.437-0.513-0.796
		c0.082-0.361,0.444-0.581,0.806-0.507l6.388,1.402c0.364,0.081,0.594,0.437,0.513,0.796
		C559.851,693.46,559.572,693.671,559.262,693.671z"/>
</g>
<g>
	<path fill="#0D10CA" d="M576.675,632.087c-0.062,0-0.125-0.008-0.188-0.026l-4.401-1.262c-0.359-0.103-0.565-0.473-0.461-0.828
		c0.103-0.354,0.478-0.562,0.837-0.455l4.401,1.261c0.359,0.103,0.565,0.473,0.461,0.828
		C577.237,631.898,576.968,632.087,576.675,632.087z"/>
</g>
<g>
	<path fill="#0D10CA" d="M460.176,612.229c-2.851,0-5.356-0.835-7.447-2.484c-7.542-5.944-66.544-58.553-87.437-80.831
		c-2.938-3.132-4.177-6.149-3.79-9.223c0.924-7.335,11.207-15.251,28.656-26.444c16.392-10.515,24.326-14.91,31.028-14.91
		c5.683,0,10.028,3.281,15.612,8.949c7.942,8.062,27.689,25.943,45.11,41.719c16.437,14.884,31.963,28.943,35.452,32.816
		c1.413,1.568,2.011,3.431,1.778,5.541c-1.011,9.158-17.967,21.278-26.115,27.102c-1.367,0.977-2.848,2.081-4.415,3.25
		C479.937,604.182,469.146,612.229,460.176,612.229z M421.187,479.672c-6.358,0-14.137,4.332-30.292,14.695
		c-16.683,10.702-27.196,18.699-28.052,25.49c-0.34,2.696,0.754,5.286,3.44,8.15c20.86,22.241,79.761,74.762,87.29,80.695
		c1.871,1.475,4.031,2.192,6.603,2.192c8.516,0,19.108-7.899,27.618-14.244c1.574-1.174,3.064-2.285,4.438-3.267
		c7.99-5.711,24.618-17.596,25.564-26.165c0.192-1.742-0.28-3.218-1.444-4.51c-3.443-3.821-18.945-17.858-35.356-32.719
		c-17.435-15.788-37.196-33.684-45.165-41.773C430.498,482.805,426.393,479.672,421.187,479.672z"/>
</g>
<g>
	<path fill="#0D10CA" d="M871.66,519.79c-0.083,0-0.169-0.016-0.251-0.048c-9.759-3.854-20.704-9.421-29.5-13.894
		c-3.4-1.729-6.337-3.223-8.722-4.372l-0.152-0.072c-26.74-12.874-54.39-26.185-80.609-40.822
		c-12.685-7.082-25.67-13.763-38.227-20.225c-14.47-7.445-29.431-15.143-44.035-23.505c-12.438-7.121-26.88-15.224-40.871-21.242
		c-10.041-4.32-17.926-8.318-25.565-12.962c-0.317-0.193-0.416-0.604-0.221-0.918c0.195-0.313,0.61-0.413,0.93-0.218
		c7.583,4.61,15.416,8.581,25.396,12.875c14.056,6.048,28.539,14.172,41.01,21.311c14.577,8.347,29.524,16.039,43.981,23.477
		c12.568,6.467,25.562,13.153,38.268,20.247c26.182,14.616,53.815,27.919,80.537,40.783l0.15,0.073
		c2.399,1.155,5.342,2.651,8.75,4.385c8.77,4.46,19.684,10.011,29.383,13.842c0.347,0.137,0.515,0.525,0.376,0.867
		C872.181,519.631,871.927,519.79,871.66,519.79z"/>
</g>
<g>
	<path fill="#0D10CA" d="M880.421,504.893c-0.083,0-0.168-0.015-0.251-0.048c-10.149-3.997-22.223-9.985-31.039-14.358
		c-2.787-1.382-5.263-2.61-7.274-3.575c-26.451-12.697-53.693-25.771-79.523-40.148c-12.49-6.951-25.274-13.51-37.637-19.853
		c-14.249-7.31-28.984-14.868-43.366-23.079c-12.248-6.992-26.469-14.946-40.245-20.855c-7.618-3.268-16.301-7.875-26.547-14.085
		c-0.318-0.193-0.418-0.604-0.222-0.918c0.196-0.315,0.612-0.411,0.93-0.22c10.19,6.177,18.819,10.756,26.378,13.998
		c13.841,5.937,28.102,13.912,40.382,20.922c14.356,8.195,29.077,15.747,43.313,23.051c12.372,6.347,25.167,12.911,37.677,19.874
		c25.794,14.357,53.018,27.423,79.344,40.059c2.123,1.018,4.605,2.249,7.397,3.634c8.795,4.362,20.839,10.335,30.935,14.311
		c0.346,0.136,0.515,0.525,0.377,0.867C880.944,504.734,880.689,504.893,880.421,504.893z"/>
</g>
<g>
	<path fill="#0D10CA" d="M892.741,487.544c-0.082,0-0.164-0.014-0.244-0.045c-9.696-3.715-20.572-9.081-29.31-13.392
		c-3.38-1.667-6.299-3.108-8.669-4.214l-0.174-0.081c-26.562-12.405-54.028-25.233-80.073-39.336
		c-12.605-6.826-25.505-13.265-37.982-19.492c-14.378-7.177-29.247-14.599-43.759-22.658c-12.359-6.865-26.709-14.674-40.613-20.476
		c-9.672-4.037-17.746-8.022-25.411-12.542c-0.321-0.189-0.425-0.599-0.234-0.915c0.191-0.317,0.607-0.42,0.926-0.231
		c7.61,4.488,15.632,8.447,25.245,12.459c13.968,5.829,28.358,13.66,40.749,20.541c14.486,8.046,29.341,15.461,43.706,22.631
		c12.486,6.232,25.398,12.677,38.021,19.513c26.009,14.085,53.457,26.903,80.002,39.3l0.174,0.081
		c2.383,1.113,5.308,2.556,8.696,4.227c8.713,4.299,19.557,9.649,29.194,13.341c0.348,0.134,0.521,0.52,0.385,0.863
		C893.268,487.383,893.012,487.544,892.741,487.544z"/>
</g>
<g>
	<path fill="#0D10CA" d="M908.148,472.827c-0.079,0-0.161-0.014-0.239-0.043c-9.811-3.671-20.815-8.971-29.656-13.23
		c-3.414-1.645-6.364-3.065-8.759-4.157l-0.187-0.086c-26.864-12.25-54.643-24.917-80.983-38.844
		c-12.75-6.742-25.799-13.102-38.42-19.252c-14.543-7.088-29.582-14.417-44.259-22.377c-12.502-6.779-27.018-14.492-41.082-20.223
		c-9.676-3.944-17.838-7.884-25.686-12.403c-0.322-0.186-0.431-0.594-0.243-0.913c0.189-0.317,0.604-0.424,0.924-0.24
		c7.793,4.488,15.903,8.403,25.521,12.322c14.128,5.758,28.682,13.491,41.215,20.287c14.653,7.946,29.677,15.269,44.207,22.35
		c12.63,6.156,25.691,12.521,38.461,19.273c26.302,13.909,54.063,26.567,80.91,38.809l0.189,0.085
		c2.407,1.099,5.362,2.522,8.784,4.17c8.816,4.247,19.788,9.533,29.541,13.181c0.35,0.131,0.525,0.516,0.393,0.861
		C908.677,472.663,908.421,472.827,908.148,472.827z"/>
</g>
<g>
	<path fill="#0D10CA" d="M919.093,454.4c-0.077,0-0.154-0.013-0.231-0.04c-9.814-3.525-20.82-8.616-29.665-12.707
		c-3.418-1.581-6.37-2.947-8.768-3.996l-0.148-0.064c-26.891-11.774-54.696-23.948-81.062-37.333
		c-12.757-6.476-25.813-12.586-38.44-18.495c-14.55-6.809-29.595-13.849-44.281-21.496c-12.507-6.513-27.029-13.922-41.103-19.428
		l-3.456-1.345c-7.676-2.98-13.738-5.333-20.889-9.287c-0.326-0.18-0.442-0.587-0.259-0.908c0.181-0.322,0.593-0.437,0.919-0.257
		c7.072,3.91,13.096,6.248,20.724,9.21l3.459,1.346c14.136,5.531,28.698,12.96,41.236,19.488
		c14.66,7.634,29.691,14.668,44.229,21.471c12.636,5.913,25.703,12.027,38.478,18.513c26.331,13.368,54.12,25.535,80.992,37.3
		l0.149,0.065c2.41,1.056,5.367,2.423,8.793,4.007c8.82,4.08,19.796,9.157,29.553,12.662c0.351,0.126,0.532,0.509,0.404,0.855
		C919.628,454.232,919.369,454.4,919.093,454.4z"/>
</g>
<g>
	<path fill="#0D10CA" d="M609.216,402.755c-0.129,0-0.259-0.036-0.374-0.112c-0.311-0.205-0.395-0.618-0.187-0.925
		c3.916-5.8,15.263-19.523,32.813-39.684c9.249-10.626,22.812-26.01,33.759-36.883c0.263-0.261,0.691-0.262,0.956-0.003
		c0.265,0.26,0.266,0.682,0.003,0.944c-10.917,10.841-24.457,26.202-33.692,36.812c-17.516,20.12-28.828,33.798-32.714,39.554
		C609.649,402.65,609.434,402.755,609.216,402.755z"/>
</g>
<g>
	<path fill="#0D10CA" d="M633.082,414.365c-0.129,0-0.259-0.036-0.374-0.112c-0.311-0.205-0.395-0.618-0.187-0.925
		c5.448-8.07,26.141-32.828,35.245-43.287c3.355-3.854,6.745-7.909,10.022-11.831c6.837-8.18,13.906-16.638,21.034-23.717
		c0.263-0.261,0.69-0.263,0.956-0.003c0.265,0.26,0.265,0.682,0.003,0.944c-7.084,7.036-14.134,15.47-20.95,23.626
		c-3.282,3.927-6.676,7.987-10.039,11.851c-9.087,10.438-29.728,35.131-35.146,43.157
		C633.515,414.261,633.3,414.365,633.082,414.365z"/>
</g>
<g>
	<path fill="#0D10CA" d="M847.334,525.128c-0.111,0-0.222-0.026-0.325-0.082c-0.327-0.177-0.447-0.583-0.268-0.906
		c3.477-6.258,13.474-19.54,22.296-31.259c4.413-5.865,8.583-11.404,11.558-15.558c3.926-5.481,8.131-11.975,12.196-18.254
		c6.287-9.709,12.788-19.749,18.888-27.111c0.235-0.286,0.663-0.326,0.95-0.094c0.289,0.234,0.331,0.654,0.095,0.939
		c-6.048,7.302-12.528,17.309-18.794,26.986c-4.074,6.292-8.287,12.798-12.231,18.305c-2.984,4.166-7.158,9.712-11.578,15.583
		c-8.793,11.684-18.763,24.927-22.194,31.104C847.804,525.003,847.572,525.128,847.334,525.128z"/>
</g>
<g>
	<path fill="#0D10CA" d="M824.956,513.117c-0.107,0-0.215-0.025-0.315-0.078c-0.33-0.172-0.457-0.575-0.282-0.901
		c4.329-8.089,17.614-27.19,27.314-41.136c2.073-2.98,3.976-5.716,5.581-8.042c3.252-4.712,6.538-9.671,9.715-14.466
		c6.624-9.996,13.473-20.332,20.378-28.982c0.232-0.289,0.657-0.338,0.949-0.111c0.293,0.228,0.343,0.648,0.112,0.937
		c-6.868,8.604-13.7,18.915-20.308,28.886c-3.181,4.8-6.469,9.764-9.729,14.488c-1.606,2.327-3.509,5.064-5.584,8.045
		c-9.682,13.92-22.941,32.984-27.233,41.004C825.432,512.988,825.197,513.117,824.956,513.117z"/>
</g>
<g>
	<path fill="#0D10CA" d="M797.782,503.331c-0.108,0-0.216-0.025-0.318-0.079c-0.33-0.173-0.454-0.578-0.278-0.902
		c3.972-7.344,14.381-21.892,23.564-34.728c3.357-4.692,6.527-9.124,9.07-12.772c3.367-4.827,6.766-9.905,10.055-14.816
		c6.856-10.239,13.946-20.827,21.095-29.688c0.234-0.289,0.66-0.334,0.949-0.106c0.292,0.229,0.341,0.65,0.107,0.938
		c-7.111,8.814-14.183,19.378-21.023,29.593c-3.291,4.916-6.695,10-10.068,14.837c-2.548,3.653-5.721,8.088-9.081,12.785
		c-9.16,12.804-19.543,27.316-23.474,34.586C798.256,503.203,798.023,503.331,797.782,503.331z"/>
</g>
<g>
	<path fill="#0D10CA" d="M779.521,475.668c-0.115,0-0.232-0.029-0.338-0.09c-0.323-0.184-0.434-0.592-0.247-0.912
		c3.624-6.188,13.113-18.437,21.487-29.245c3.072-3.967,5.96-7.694,8.284-10.77c3.07-4.066,6.172-8.344,9.172-12.48
		c6.253-8.624,12.72-17.542,19.24-25.007c0.247-0.279,0.674-0.308,0.953-0.069c0.284,0.24,0.314,0.662,0.071,0.941
		c-6.481,7.419-12.929,16.312-19.166,24.912c-3.004,4.142-6.109,8.425-9.188,12.501c-2.325,3.08-5.217,6.812-8.293,10.784
		c-8.349,10.775-17.81,22.988-21.39,29.102C779.981,475.548,779.754,475.668,779.521,475.668z"/>
</g>
<g>
	<path fill="#0D10CA" d="M755.79,463.657c-0.115,0-0.232-0.029-0.338-0.09c-0.323-0.184-0.434-0.592-0.247-0.912
		c3.627-6.192,13.123-18.449,21.501-29.263c3.068-3.96,5.951-7.681,8.271-10.752c3.071-4.067,6.174-8.347,9.175-12.485
		c6.253-8.622,12.717-17.538,19.236-25.002c0.245-0.28,0.673-0.309,0.953-0.069c0.284,0.24,0.314,0.662,0.071,0.941
		c-6.48,7.417-12.927,16.308-19.161,24.906c-3.005,4.144-6.112,8.429-9.192,12.506c-2.321,3.076-5.208,6.8-8.28,10.765
		c-8.353,10.782-17.822,23.003-21.405,29.121C756.249,463.538,756.022,463.657,755.79,463.657z"/>
</g>
<g>
	<path fill="#0D10CA" d="M735.618,450.841c-0.113,0-0.228-0.028-0.334-0.087c-0.325-0.182-0.438-0.589-0.253-0.91
		c3.404-5.913,12.314-17.615,20.176-27.94c2.884-3.787,5.593-7.346,7.773-10.282c2.882-3.882,5.794-7.968,8.609-11.919
		c5.872-8.238,11.944-16.757,18.066-23.887c0.244-0.281,0.67-0.315,0.953-0.078c0.285,0.238,0.319,0.659,0.079,0.94
		c-6.084,7.085-12.138,15.579-17.992,23.793c-2.82,3.956-5.736,8.046-8.624,11.939c-2.183,2.941-4.896,6.504-7.782,10.296
		c-7.838,10.292-16.721,21.958-20.082,27.797C736.081,450.72,735.853,450.841,735.618,450.841z"/>
</g>
<g>
	<path fill="#0D10CA" d="M711.292,439.275c-0.116,0-0.232-0.029-0.339-0.091c-0.323-0.185-0.433-0.594-0.245-0.912
		c3.445-5.844,12.457-17.412,20.408-27.617c2.911-3.737,5.646-7.248,7.847-10.146c2.914-3.836,5.857-7.872,8.704-11.775
		c5.935-8.139,12.072-16.555,18.261-23.6c0.244-0.279,0.672-0.309,0.954-0.066c0.281,0.241,0.311,0.663,0.067,0.941
		c-6.15,7-12.268,15.39-18.186,23.505c-2.851,3.908-5.798,7.95-8.718,11.795c-2.205,2.902-4.944,6.417-7.859,10.159
		c-7.926,10.174-16.91,21.704-20.309,27.474C711.75,439.157,711.525,439.275,711.292,439.275z"/>
</g>
<g>
	<path fill="#0D10CA" d="M687.868,428.599c-0.113,0-0.228-0.028-0.333-0.087c-0.325-0.182-0.438-0.589-0.253-0.91
		c3.423-5.951,12.387-17.731,20.295-28.124c2.894-3.803,5.614-7.377,7.802-10.327c2.896-3.904,5.823-8.013,8.652-11.987
		c5.903-8.288,12.007-16.86,18.162-24.034c0.244-0.281,0.669-0.315,0.953-0.078c0.285,0.238,0.319,0.659,0.079,0.94
		c-6.117,7.129-12.204,15.674-18.09,23.939c-2.833,3.979-5.763,8.093-8.667,12.008c-2.191,2.954-4.913,6.532-7.811,10.341
		c-7.884,10.361-16.82,22.104-20.201,27.981C688.332,428.478,688.103,428.599,687.868,428.599z"/>
</g>
<g>
	<path fill="#0D10CA" d="M655.434,425.93c-0.121,0-0.243-0.032-0.353-0.098c-0.318-0.193-0.418-0.604-0.222-0.918
		c3.964-6.373,14.344-18.991,23.502-30.124c3.357-4.082,6.512-7.918,9.051-11.083c3.359-4.189,6.754-8.597,10.035-12.859
		c6.837-8.879,13.905-18.059,21.032-25.744c0.253-0.272,0.684-0.288,0.956-0.041c0.275,0.249,0.294,0.671,0.042,0.943
		c-7.086,7.639-14.136,16.795-20.953,25.649c-3.286,4.268-6.684,8.681-10.052,12.881c-2.541,3.169-5.7,7.009-9.062,11.096
		c-9.131,11.101-19.481,23.683-23.398,29.981C655.883,425.818,655.661,425.93,655.434,425.93z"/>
</g>
<g>
</g>
<g>
</g>
<g>
</g>
<g>
</g>
<g>
</g>
<g>
</g>
</svg>
